<svg width="567" height="160" viewBox="0 0 567 160" fill="none" xmlns="http://www.w3.org/2000/svg">
<path d="M6.83203 95.8398L96.7734 5.80078C100.615 1.95964 105.367 0.0390625 111.031 0.0390625C116.565 0.0390625 121.253 1.99219 125.094 5.89844C129 9.73958 130.953 14.4271 130.953 19.9609V89.9805H141.012C146.546 89.9805 151.266 91.9336 155.172 95.8398C159.078 99.7461 161.031 104.466 161.031 110C161.031 115.534 159.078 120.254 155.172 124.16C151.266 128.066 146.546 130.02 141.012 130.02H130.953V139.98C130.953 145.514 129 150.234 125.094 154.141C121.253 158.047 116.565 160 111.031 160C105.497 160 100.777 158.047 96.8711 154.141C92.9648 150.234 91.0117 145.514 91.0117 139.98V130.02H20.9922C15.4583 130.02 10.7383 128.066 6.83203 124.16C2.92578 120.254 0.972656 115.534 0.972656 110C0.972656 104.661 2.92578 99.9414 6.83203 95.8398ZM24.2148 89.9805H58.1992L91.0117 57.168V23.1836L24.2148 89.9805ZM61.4219 97.9883L37.3984 122.012H91.0117V97.9883H61.4219ZM99.0195 60.3906V89.9805H123.043V36.3672L99.0195 60.3906ZM111.031 119.961C113.831 119.961 116.76 120.645 119.82 122.012H123.043V118.789C121.676 115.729 120.992 112.799 120.992 110C120.992 107.331 121.676 104.466 123.043 101.406V97.9883H99.0195V122.012H102.438C105.497 120.645 108.362 119.961 111.031 119.961ZM102.535 11.5625C100.191 13.8411 99.0195 16.6406 99.0195 19.9609C99.0195 23.2812 100.191 26.1133 102.535 28.457C104.879 30.8008 107.711 31.9727 111.031 31.9727C114.352 31.9727 117.184 30.8008 119.527 28.457C121.871 26.1133 123.043 23.2812 123.043 19.9609C123.043 16.6406 121.871 13.8411 119.527 11.5625C117.184 9.21875 114.352 8.04688 111.031 8.04688C107.711 8.04688 104.879 9.21875 102.535 11.5625ZM12.4961 118.496C14.8398 120.84 17.6719 122.012 20.9922 122.012C24.3125 122.012 27.1445 120.84 29.4883 118.496C31.832 116.152 33.0039 113.32 33.0039 110C33.0039 106.68 31.832 103.848 29.4883 101.504C27.1445 99.1602 24.3125 97.9883 20.9922 97.9883C17.6719 97.9883 14.8398 99.1602 12.4961 101.504C10.1523 103.848 8.98047 106.68 8.98047 110C8.98047 113.32 10.1523 116.152 12.4961 118.496ZM99.0195 139.98C99.0195 143.301 100.191 146.133 102.535 148.477C104.879 150.82 107.711 151.992 111.031 151.992C114.352 151.992 117.184 150.82 119.527 148.477C121.871 146.133 123.043 143.301 123.043 139.98C123.043 135.879 121.22 132.559 117.574 130.02H104.391C100.81 132.493 99.0195 135.814 99.0195 139.98ZM141.012 122.012C144.332 122.012 147.164 120.84 149.508 118.496C151.852 116.152 153.023 113.32 153.023 110C153.023 106.68 151.852 103.848 149.508 101.504C147.164 99.1602 144.332 97.9883 141.012 97.9883C136.78 97.9883 133.427 99.7786 130.953 103.359V116.641C133.427 120.221 136.78 122.012 141.012 122.012ZM69.4297 89.9805H91.0117V68.3984L69.4297 89.9805ZM37.0078 97.9883C39.1562 101.048 40.4909 104.173 41.0117 107.363L50.1914 97.9883H37.0078ZM108.395 39.9805C105.204 39.4596 102.079 38.125 99.0195 35.9766V49.1602L108.395 39.9805ZM209.277 111.172C205.046 101.276 202.93 90.8919 202.93 80.0195C202.93 69.1471 205.046 58.7956 209.277 48.9648C213.509 39.069 219.173 30.5729 226.27 23.4766C233.431 16.3151 241.927 10.6185 251.758 6.38672C261.654 2.15495 272.038 0.0390625 282.91 0.0390625C293.783 0.0390625 304.134 2.15495 313.965 6.38672C323.861 10.6185 332.357 16.3151 339.453 23.4766C346.615 30.5729 352.311 39.069 356.543 48.9648C360.775 58.7956 362.891 69.1471 362.891 80.0195C362.891 90.8919 360.775 101.276 356.543 111.172C352.311 121.003 346.615 129.499 339.453 136.66C332.357 143.757 323.861 149.421 313.965 153.652C304.134 157.884 293.783 160 282.91 160C272.038 160 261.654 157.884 251.758 153.652C241.927 149.421 233.431 143.757 226.27 136.66C219.173 129.499 213.509 121.003 209.277 111.172ZM254.59 51.7969C246.777 59.6094 242.871 69.0169 242.871 80.0195C242.871 91.0221 246.777 100.43 254.59 108.242C262.467 116.055 271.908 119.961 282.91 119.961C293.913 119.961 303.32 116.055 311.133 108.242C319.01 100.43 322.949 91.0221 322.949 80.0195C322.949 69.0169 319.01 59.6094 311.133 51.7969C303.32 43.9193 293.913 39.9805 282.91 39.9805C271.908 39.9805 262.467 43.9193 254.59 51.7969ZM234.863 80.0195C234.863 73.5742 236.133 67.3893 238.672 61.4648C241.211 55.4753 244.629 50.332 248.926 46.0352C253.223 41.7383 258.333 38.3203 264.258 35.7812C270.247 33.2422 276.465 31.9727 282.91 31.9727C291.569 31.9727 299.577 34.1211 306.934 38.418C314.29 42.7148 320.117 48.5742 324.414 55.9961C328.711 63.3529 330.859 71.3607 330.859 80.0195C330.859 88.6784 328.711 96.6862 324.414 104.043C320.117 111.4 314.29 117.227 306.934 121.523C299.577 125.82 291.569 127.969 282.91 127.969C274.251 127.969 266.211 125.82 258.789 121.523C251.432 117.227 245.605 111.4 241.309 104.043C237.012 96.6862 234.863 88.6784 234.863 80.0195ZM216.602 52.0898C212.826 60.944 210.938 70.2539 210.938 80.0195C210.938 89.7852 212.826 99.1276 216.602 108.047C220.378 116.901 225.488 124.551 231.934 130.996C238.379 137.441 246.029 142.552 254.883 146.328C263.802 150.104 273.145 151.992 282.91 151.992C292.676 151.992 301.986 150.104 310.84 146.328C319.759 142.552 327.441 137.441 333.887 130.996C340.332 124.551 345.443 116.901 349.219 108.047C352.995 99.1276 354.883 89.7852 354.883 80.0195C354.883 70.2539 352.995 60.944 349.219 52.0898C345.443 43.1706 340.332 35.4883 333.887 29.043C327.441 22.5977 319.759 17.487 310.84 13.7109C301.986 9.9349 292.676 8.04688 282.91 8.04688C273.145 8.04688 263.802 9.9349 254.883 13.7109C246.029 17.487 238.379 22.5977 231.934 29.043C225.488 35.4883 220.378 43.1706 216.602 52.0898ZM413.285 111.172C409.053 101.276 406.938 90.8919 406.938 80.0195C406.938 69.1471 409.053 58.7956 413.285 48.9648C417.517 39.069 423.181 30.5729 430.277 23.4766C437.439 16.3151 445.935 10.6185 455.766 6.38672C465.661 2.15495 476.046 0.0390625 486.918 0.0390625C497.79 0.0390625 508.142 2.15495 517.973 6.38672C527.868 10.6185 536.365 16.3151 543.461 23.4766C550.622 30.5729 556.319 39.069 560.551 48.9648C564.783 58.7956 566.898 69.1471 566.898 80.0195C566.898 90.8919 564.783 101.276 560.551 111.172C556.319 121.003 550.622 129.499 543.461 136.66C536.365 143.757 527.868 149.421 517.973 153.652C508.142 157.884 497.79 160 486.918 160C476.046 160 465.661 157.884 455.766 153.652C445.935 149.421 437.439 143.757 430.277 136.66C423.181 129.499 417.517 121.003 413.285 111.172ZM458.598 51.7969C450.785 59.6094 446.879 69.0169 446.879 80.0195C446.879 91.0221 450.785 100.43 458.598 108.242C466.475 116.055 475.915 119.961 486.918 119.961C497.921 119.961 507.328 116.055 515.141 108.242C523.018 100.43 526.957 91.0221 526.957 80.0195C526.957 69.0169 523.018 59.6094 515.141 51.7969C507.328 43.9193 497.921 39.9805 486.918 39.9805C475.915 39.9805 466.475 43.9193 458.598 51.7969ZM438.871 80.0195C438.871 73.5742 440.141 67.3893 442.68 61.4648C445.219 55.4753 448.637 50.332 452.934 46.0352C457.23 41.7383 462.341 38.3203 468.266 35.7812C474.255 33.2422 480.473 31.9727 486.918 31.9727C495.577 31.9727 503.585 34.1211 510.941 38.418C518.298 42.7148 524.125 48.5742 528.422 55.9961C532.719 63.3529 534.867 71.3607 534.867 80.0195C534.867 88.6784 532.719 96.6862 528.422 104.043C524.125 111.4 518.298 117.227 510.941 121.523C503.585 125.82 495.577 127.969 486.918 127.969C478.259 127.969 470.219 125.82 462.797 121.523C455.44 117.227 449.613 111.4 445.316 104.043C441.02 96.6862 438.871 88.6784 438.871 80.0195ZM420.609 52.0898C416.833 60.944 414.945 70.2539 414.945 80.0195C414.945 89.7852 416.833 99.1276 420.609 108.047C424.385 116.901 429.496 124.551 435.941 130.996C442.387 137.441 450.036 142.552 458.891 146.328C467.81 150.104 477.152 151.992 486.918 151.992C496.684 151.992 505.993 150.104 514.848 146.328C523.767 142.552 531.449 137.441 537.895 130.996C544.34 124.551 549.451 116.901 553.227 108.047C557.003 99.1276 558.891 89.7852 558.891 80.0195C558.891 70.2539 557.003 60.944 553.227 52.0898C549.451 43.1706 544.34 35.4883 537.895 29.043C531.449 22.5977 523.767 17.487 514.848 13.7109C505.993 9.9349 496.684 8.04688 486.918 8.04688C477.152 8.04688 467.81 9.9349 458.891 13.7109C450.036 17.487 442.387 22.5977 435.941 29.043C429.496 35.4883 424.385 43.1706 420.609 52.0898Z" fill="#667085"/>
</svg>
