<svg width="565" height="160" viewBox="0 0 565 160" fill="none" xmlns="http://www.w3.org/2000/svg">
<path d="M6.83203 95.8398L96.7734 5.80078C100.615 1.95964 105.367 0.0390625 111.031 0.0390625C116.565 0.0390625 121.253 1.99219 125.094 5.89844C129 9.73958 130.953 14.4271 130.953 19.9609V89.9805H141.012C146.546 89.9805 151.266 91.9336 155.172 95.8398C159.078 99.7461 161.031 104.466 161.031 110C161.031 115.534 159.078 120.254 155.172 124.16C151.266 128.066 146.546 130.02 141.012 130.02H130.953V139.98C130.953 145.514 129 150.234 125.094 154.141C121.253 158.047 116.565 160 111.031 160C105.497 160 100.777 158.047 96.8711 154.141C92.9648 150.234 91.0117 145.514 91.0117 139.98V130.02H20.9922C15.4583 130.02 10.7383 128.066 6.83203 124.16C2.92578 120.254 0.972656 115.534 0.972656 110C0.972656 104.661 2.92578 99.9414 6.83203 95.8398ZM24.2148 89.9805H58.1992L91.0117 57.168V23.1836L24.2148 89.9805ZM61.4219 97.9883L37.3984 122.012H91.0117V97.9883H61.4219ZM99.0195 60.3906V89.9805H123.043V36.3672L99.0195 60.3906ZM111.031 119.961C113.831 119.961 116.76 120.645 119.82 122.012H123.043V118.789C121.676 115.729 120.992 112.799 120.992 110C120.992 107.331 121.676 104.466 123.043 101.406V97.9883H99.0195V122.012H102.438C105.497 120.645 108.362 119.961 111.031 119.961ZM102.535 11.5625C100.191 13.8411 99.0195 16.6406 99.0195 19.9609C99.0195 23.2812 100.191 26.1133 102.535 28.457C104.879 30.8008 107.711 31.9727 111.031 31.9727C114.352 31.9727 117.184 30.8008 119.527 28.457C121.871 26.1133 123.043 23.2812 123.043 19.9609C123.043 16.6406 121.871 13.8411 119.527 11.5625C117.184 9.21875 114.352 8.04688 111.031 8.04688C107.711 8.04688 104.879 9.21875 102.535 11.5625ZM12.4961 118.496C14.8398 120.84 17.6719 122.012 20.9922 122.012C24.3125 122.012 27.1445 120.84 29.4883 118.496C31.832 116.152 33.0039 113.32 33.0039 110C33.0039 106.68 31.832 103.848 29.4883 101.504C27.1445 99.1602 24.3125 97.9883 20.9922 97.9883C17.6719 97.9883 14.8398 99.1602 12.4961 101.504C10.1523 103.848 8.98047 106.68 8.98047 110C8.98047 113.32 10.1523 116.152 12.4961 118.496ZM99.0195 139.98C99.0195 143.301 100.191 146.133 102.535 148.477C104.879 150.82 107.711 151.992 111.031 151.992C114.352 151.992 117.184 150.82 119.527 148.477C121.871 146.133 123.043 143.301 123.043 139.98C123.043 135.879 121.22 132.559 117.574 130.02H104.391C100.81 132.493 99.0195 135.814 99.0195 139.98ZM141.012 122.012C144.332 122.012 147.164 120.84 149.508 118.496C151.852 116.152 153.023 113.32 153.023 110C153.023 106.68 151.852 103.848 149.508 101.504C147.164 99.1602 144.332 97.9883 141.012 97.9883C136.78 97.9883 133.427 99.7786 130.953 103.359V116.641C133.427 120.221 136.78 122.012 141.012 122.012ZM69.4297 89.9805H91.0117V68.3984L69.4297 89.9805ZM37.0078 97.9883C39.1562 101.048 40.4909 104.173 41.0117 107.363L50.1914 97.9883H37.0078ZM108.395 39.9805C105.204 39.4596 102.079 38.125 99.0195 35.9766V49.1602L108.395 39.9805ZM209.277 111.172C205.046 101.276 202.93 90.8919 202.93 80.0195C202.93 69.1471 205.046 58.7956 209.277 48.9648C213.509 39.069 219.173 30.5729 226.27 23.4766C233.431 16.3151 241.927 10.6185 251.758 6.38672C261.654 2.15495 272.038 0.0390625 282.91 0.0390625C293.783 0.0390625 304.134 2.15495 313.965 6.38672C323.861 10.6185 332.357 16.3151 339.453 23.4766C346.615 30.5729 352.311 39.069 356.543 48.9648C360.775 58.7956 362.891 69.1471 362.891 80.0195C362.891 90.8919 360.775 101.276 356.543 111.172C352.311 121.003 346.615 129.499 339.453 136.66C332.357 143.757 323.861 149.421 313.965 153.652C304.134 157.884 293.783 160 282.91 160C272.038 160 261.654 157.884 251.758 153.652C241.927 149.421 233.431 143.757 226.27 136.66C219.173 129.499 213.509 121.003 209.277 111.172ZM254.59 51.7969C246.777 59.6094 242.871 69.0169 242.871 80.0195C242.871 91.0221 246.777 100.43 254.59 108.242C262.467 116.055 271.908 119.961 282.91 119.961C293.913 119.961 303.32 116.055 311.133 108.242C319.01 100.43 322.949 91.0221 322.949 80.0195C322.949 69.0169 319.01 59.6094 311.133 51.7969C303.32 43.9193 293.913 39.9805 282.91 39.9805C271.908 39.9805 262.467 43.9193 254.59 51.7969ZM234.863 80.0195C234.863 73.5742 236.133 67.3893 238.672 61.4648C241.211 55.4753 244.629 50.332 248.926 46.0352C253.223 41.7383 258.333 38.3203 264.258 35.7812C270.247 33.2422 276.465 31.9727 282.91 31.9727C291.569 31.9727 299.577 34.1211 306.934 38.418C314.29 42.7148 320.117 48.5742 324.414 55.9961C328.711 63.3529 330.859 71.3607 330.859 80.0195C330.859 88.6784 328.711 96.6862 324.414 104.043C320.117 111.4 314.29 117.227 306.934 121.523C299.577 125.82 291.569 127.969 282.91 127.969C274.251 127.969 266.211 125.82 258.789 121.523C251.432 117.227 245.605 111.4 241.309 104.043C237.012 96.6862 234.863 88.6784 234.863 80.0195ZM216.602 52.0898C212.826 60.944 210.938 70.2539 210.938 80.0195C210.938 89.7852 212.826 99.1276 216.602 108.047C220.378 116.901 225.488 124.551 231.934 130.996C238.379 137.441 246.029 142.552 254.883 146.328C263.802 150.104 273.145 151.992 282.91 151.992C292.676 151.992 301.986 150.104 310.84 146.328C319.759 142.552 327.441 137.441 333.887 130.996C340.332 124.551 345.443 116.901 349.219 108.047C352.995 99.1276 354.883 89.7852 354.883 80.0195C354.883 70.2539 352.995 60.944 349.219 52.0898C345.443 43.1706 340.332 35.4883 333.887 29.043C327.441 22.5977 319.759 17.487 310.84 13.7109C301.986 9.9349 292.676 8.04688 282.91 8.04688C273.145 8.04688 263.802 9.9349 254.883 13.7109C246.029 17.487 238.379 22.5977 231.934 29.043C225.488 35.4883 220.378 43.1706 216.602 52.0898ZM410.746 95.8398L500.688 5.80078C504.529 1.95964 509.281 0.0390625 514.945 0.0390625C520.479 0.0390625 525.167 1.99219 529.008 5.89844C532.914 9.73958 534.867 14.4271 534.867 19.9609V89.9805H544.926C550.46 89.9805 555.18 91.9336 559.086 95.8398C562.992 99.7461 564.945 104.466 564.945 110C564.945 115.534 562.992 120.254 559.086 124.16C555.18 128.066 550.46 130.02 544.926 130.02H534.867V139.98C534.867 145.514 532.914 150.234 529.008 154.141C525.167 158.047 520.479 160 514.945 160C509.411 160 504.691 158.047 500.785 154.141C496.879 150.234 494.926 145.514 494.926 139.98V130.02H424.906C419.372 130.02 414.652 128.066 410.746 124.16C406.84 120.254 404.887 115.534 404.887 110C404.887 104.661 406.84 99.9414 410.746 95.8398ZM428.129 89.9805H462.113L494.926 57.168V23.1836L428.129 89.9805ZM465.336 97.9883L441.312 122.012H494.926V97.9883H465.336ZM502.934 60.3906V89.9805H526.957V36.3672L502.934 60.3906ZM514.945 119.961C517.745 119.961 520.674 120.645 523.734 122.012H526.957V118.789C525.59 115.729 524.906 112.799 524.906 110C524.906 107.331 525.59 104.466 526.957 101.406V97.9883H502.934V122.012H506.352C509.411 120.645 512.276 119.961 514.945 119.961ZM506.449 11.5625C504.105 13.8411 502.934 16.6406 502.934 19.9609C502.934 23.2812 504.105 26.1133 506.449 28.457C508.793 30.8008 511.625 31.9727 514.945 31.9727C518.266 31.9727 521.098 30.8008 523.441 28.457C525.785 26.1133 526.957 23.2812 526.957 19.9609C526.957 16.6406 525.785 13.8411 523.441 11.5625C521.098 9.21875 518.266 8.04688 514.945 8.04688C511.625 8.04688 508.793 9.21875 506.449 11.5625ZM416.41 118.496C418.754 120.84 421.586 122.012 424.906 122.012C428.227 122.012 431.059 120.84 433.402 118.496C435.746 116.152 436.918 113.32 436.918 110C436.918 106.68 435.746 103.848 433.402 101.504C431.059 99.1602 428.227 97.9883 424.906 97.9883C421.586 97.9883 418.754 99.1602 416.41 101.504C414.066 103.848 412.895 106.68 412.895 110C412.895 113.32 414.066 116.152 416.41 118.496ZM502.934 139.98C502.934 143.301 504.105 146.133 506.449 148.477C508.793 150.82 511.625 151.992 514.945 151.992C518.266 151.992 521.098 150.82 523.441 148.477C525.785 146.133 526.957 143.301 526.957 139.98C526.957 135.879 525.134 132.559 521.488 130.02H508.305C504.724 132.493 502.934 135.814 502.934 139.98ZM544.926 122.012C548.246 122.012 551.078 120.84 553.422 118.496C555.766 116.152 556.938 113.32 556.938 110C556.938 106.68 555.766 103.848 553.422 101.504C551.078 99.1602 548.246 97.9883 544.926 97.9883C540.694 97.9883 537.341 99.7786 534.867 103.359V116.641C537.341 120.221 540.694 122.012 544.926 122.012ZM473.344 89.9805H494.926V68.3984L473.344 89.9805ZM440.922 97.9883C443.07 101.048 444.405 104.173 444.926 107.363L454.105 97.9883H440.922ZM512.309 39.9805C509.118 39.4596 505.993 38.125 502.934 35.9766V49.1602L512.309 39.9805Z" fill="#667085"/>
</svg>
