<svg width="517" height="160" viewBox="0 0 517 160" fill="none" xmlns="http://www.w3.org/2000/svg">
<path d="M6.83203 95.8398L96.7734 5.80078C100.615 1.95964 105.367 0.0390625 111.031 0.0390625C116.565 0.0390625 121.253 1.99219 125.094 5.89844C129 9.73958 130.953 14.4271 130.953 19.9609V89.9805H141.012C146.546 89.9805 151.266 91.9336 155.172 95.8398C159.078 99.7461 161.031 104.466 161.031 110C161.031 115.534 159.078 120.254 155.172 124.16C151.266 128.066 146.546 130.02 141.012 130.02H130.953V139.98C130.953 145.514 129 150.234 125.094 154.141C121.253 158.047 116.565 160 111.031 160C105.497 160 100.777 158.047 96.8711 154.141C92.9648 150.234 91.0117 145.514 91.0117 139.98V130.02H20.9922C15.4583 130.02 10.7383 128.066 6.83203 124.16C2.92578 120.254 0.972656 115.534 0.972656 110C0.972656 104.661 2.92578 99.9414 6.83203 95.8398ZM24.2148 89.9805H58.1992L91.0117 57.168V23.1836L24.2148 89.9805ZM61.4219 97.9883L37.3984 122.012H91.0117V97.9883H61.4219ZM99.0195 60.3906V89.9805H123.043V36.3672L99.0195 60.3906ZM111.031 119.961C113.831 119.961 116.76 120.645 119.82 122.012H123.043V118.789C121.676 115.729 120.992 112.799 120.992 110C120.992 107.331 121.676 104.466 123.043 101.406V97.9883H99.0195V122.012H102.438C105.497 120.645 108.362 119.961 111.031 119.961ZM102.535 11.5625C100.191 13.8411 99.0195 16.6406 99.0195 19.9609C99.0195 23.2812 100.191 26.1133 102.535 28.457C104.879 30.8008 107.711 31.9727 111.031 31.9727C114.352 31.9727 117.184 30.8008 119.527 28.457C121.871 26.1133 123.043 23.2812 123.043 19.9609C123.043 16.6406 121.871 13.8411 119.527 11.5625C117.184 9.21875 114.352 8.04688 111.031 8.04688C107.711 8.04688 104.879 9.21875 102.535 11.5625ZM12.4961 118.496C14.8398 120.84 17.6719 122.012 20.9922 122.012C24.3125 122.012 27.1445 120.84 29.4883 118.496C31.832 116.152 33.0039 113.32 33.0039 110C33.0039 106.68 31.832 103.848 29.4883 101.504C27.1445 99.1602 24.3125 97.9883 20.9922 97.9883C17.6719 97.9883 14.8398 99.1602 12.4961 101.504C10.1523 103.848 8.98047 106.68 8.98047 110C8.98047 113.32 10.1523 116.152 12.4961 118.496ZM99.0195 139.98C99.0195 143.301 100.191 146.133 102.535 148.477C104.879 150.82 107.711 151.992 111.031 151.992C114.352 151.992 117.184 150.82 119.527 148.477C121.871 146.133 123.043 143.301 123.043 139.98C123.043 135.879 121.22 132.559 117.574 130.02H104.391C100.81 132.493 99.0195 135.814 99.0195 139.98ZM141.012 122.012C144.332 122.012 147.164 120.84 149.508 118.496C151.852 116.152 153.023 113.32 153.023 110C153.023 106.68 151.852 103.848 149.508 101.504C147.164 99.1602 144.332 97.9883 141.012 97.9883C136.78 97.9883 133.427 99.7786 130.953 103.359V116.641C133.427 120.221 136.78 122.012 141.012 122.012ZM69.4297 89.9805H91.0117V68.3984L69.4297 89.9805ZM37.0078 97.9883C39.1562 101.048 40.4909 104.173 41.0117 107.363L50.1914 97.9883H37.0078ZM108.395 39.9805C105.204 39.4596 102.079 38.125 99.0195 35.9766V49.1602L108.395 39.9805ZM262.891 0.0390625C268.424 0.0390625 273.145 1.99219 277.051 5.89844C280.957 9.73958 282.91 14.4271 282.91 19.9609V119.961H302.93C308.464 119.961 313.184 121.914 317.09 125.82C320.996 129.727 322.949 134.447 322.949 139.98C322.949 145.514 320.996 150.234 317.09 154.141C313.184 158.047 308.464 160 302.93 160H222.949C217.415 160 212.695 158.047 208.789 154.141C204.883 150.234 202.93 145.514 202.93 139.98C202.93 134.447 204.883 129.727 208.789 125.82C212.695 121.914 217.415 119.961 222.949 119.961H242.871V39.9805H232.91C227.376 39.9805 222.656 38.0273 218.75 34.1211C214.844 30.2148 212.891 25.4948 212.891 19.9609C212.891 14.4271 214.844 9.73958 218.75 5.89844C222.656 1.99219 227.376 0.0390625 232.91 0.0390625H262.891ZM262.891 39.9805H250.879V119.961H274.902V35.9766C271.647 38.6458 267.643 39.9805 262.891 39.9805ZM250.879 139.98C250.879 143.171 251.953 145.938 254.102 148.281C256.315 150.56 258.919 151.797 261.914 151.992H262.891C266.211 151.992 269.043 150.82 271.387 148.477C273.73 146.133 274.902 143.301 274.902 139.98C274.902 136.921 273.828 134.251 271.68 131.973C269.531 129.629 266.927 128.294 263.867 127.969H262.891C259.57 127.969 256.738 129.141 254.395 131.484C252.051 133.828 250.879 136.66 250.879 139.98ZM214.453 148.477C216.797 150.82 219.629 151.992 222.949 151.992C226.27 151.992 229.069 150.82 231.348 148.477C233.691 146.133 234.863 143.301 234.863 139.98C234.863 136.66 233.691 133.828 231.348 131.484C229.069 129.141 226.27 127.969 222.949 127.969C219.629 127.969 216.797 129.141 214.453 131.484C212.109 133.828 210.938 136.66 210.938 139.98C210.938 143.301 212.109 146.133 214.453 148.477ZM294.434 148.477C296.777 150.82 299.609 151.992 302.93 151.992C306.25 151.992 309.082 150.82 311.426 148.477C313.77 146.133 314.941 143.301 314.941 139.98C314.941 136.66 313.77 133.828 311.426 131.484C309.082 129.141 306.25 127.969 302.93 127.969C299.609 127.969 296.777 129.141 294.434 131.484C292.09 133.828 290.918 136.66 290.918 139.98C290.918 143.301 292.09 146.133 294.434 148.477ZM252.93 19.9609C252.93 22.2396 252.669 24.0625 252.148 25.4297C253.125 27.4479 254.59 29.043 256.543 30.2148C258.496 31.3867 260.612 31.9727 262.891 31.9727C266.211 31.9727 269.043 30.8008 271.387 28.457C273.73 26.1133 274.902 23.2812 274.902 19.9609C274.902 16.6406 273.73 13.8411 271.387 11.5625C269.043 9.21875 266.211 8.04688 262.891 8.04688C260.612 8.04688 258.496 8.66536 256.543 9.90234C254.59 11.0742 253.125 12.6367 252.148 14.5898C252.669 16.1523 252.93 17.9427 252.93 19.9609ZM232.91 31.9727C237.077 31.9727 240.397 30.1823 242.871 26.6016V19.9609C242.871 18.138 243.164 16.3477 243.75 14.5898C242.773 12.6367 241.309 11.0742 239.355 9.90234C237.402 8.66536 235.254 8.04688 232.91 8.04688C229.59 8.04688 226.758 9.21875 224.414 11.5625C222.07 13.8411 220.898 16.6406 220.898 19.9609C220.898 23.2812 222.07 26.1133 224.414 28.457C226.758 30.8008 229.59 31.9727 232.91 31.9727ZM246.875 151.992C244.401 148.932 243.066 145.189 242.871 140.762C242.676 145.189 241.341 148.932 238.867 151.992H246.875ZM282.91 140.762C282.715 145.189 281.38 148.932 278.906 151.992H286.914C284.44 148.932 283.105 145.189 282.91 140.762ZM282.91 139.199C283.105 134.967 284.44 131.224 286.914 127.969H282.91V139.199ZM238.867 127.969C241.341 131.224 242.676 134.967 242.871 139.199V127.969H238.867ZM466.703 106.973C458.565 108.796 450.362 109.805 442.094 110H439.848C429.691 110 420.251 108.893 411.527 106.68C402.868 104.401 395.186 101.081 388.48 96.7188C381.775 92.2917 376.501 86.5299 372.66 79.4336C368.819 72.2721 366.898 64.1341 366.898 55.0195C366.898 46.3607 368.819 38.5156 372.66 31.4844C376.501 24.4531 381.742 18.6589 388.383 14.1016C395.089 9.54427 402.836 6.0612 411.625 3.65234C420.414 1.24349 429.822 0.0390625 439.848 0.0390625C452.608 0.0390625 463.936 1.92708 473.832 5.70312C483.728 9.41406 491.768 14.6875 497.953 21.5234C504.203 28.2943 508.923 36.2695 512.113 45.4492C515.303 54.6289 516.898 64.8177 516.898 76.0156C516.898 85.5859 515.629 94.668 513.09 103.262C510.616 111.855 507.003 119.603 502.25 126.504C497.497 133.34 491.833 139.297 485.258 144.375C478.682 149.388 471.163 153.262 462.699 155.996C454.301 158.665 445.349 160 435.844 160C419.958 160 404.757 156.875 390.238 150.625C386.332 149.193 383.142 146.784 380.668 143.398C378.259 139.948 377.055 136.074 377.055 131.777C377.055 126.243 379.008 121.523 382.914 117.617C386.82 113.711 391.54 111.758 397.074 111.758C399.223 111.758 401.501 112.181 403.91 113.027C408.533 114.915 411.788 116.217 413.676 116.934C415.629 117.585 418.559 118.268 422.465 118.984C426.436 119.635 430.896 119.961 435.844 119.961C448.214 119.961 458.5 115.632 466.703 106.973ZM439.848 8.04688C430.928 8.04688 422.562 9.08854 414.75 11.1719C406.938 13.2552 400.069 16.25 394.145 20.1562C388.22 23.9974 383.533 28.9128 380.082 34.9023C376.632 40.8919 374.906 47.5977 374.906 55.0195C374.906 62.832 376.599 69.7982 379.984 75.918C383.435 81.9727 388.155 86.888 394.145 90.6641C400.134 94.375 406.97 97.207 414.652 99.1602C422.4 101.048 430.798 101.992 439.848 101.992C454.366 101.992 467.094 99.5833 478.031 94.7656C488.969 89.8828 496.651 82.6888 501.078 73.1836C497.758 74.4206 495.023 75.0391 492.875 75.0391C489.555 75.0391 486.43 74.2904 483.5 72.793C480.635 71.2305 478.292 69.1146 476.469 66.4453C473.344 70.026 468.656 72.8581 462.406 74.9414C456.221 76.9596 448.702 77.9688 439.848 77.9688C426.632 77.9688 416.475 75.8203 409.379 71.5234C402.348 67.1615 398.832 61.6602 398.832 55.0195C398.832 48.3789 402.348 42.8776 409.379 38.5156C416.475 34.1536 426.632 31.9727 439.848 31.9727C448.702 31.9727 456.221 33.0143 462.406 35.0977C468.656 37.181 473.344 40.013 476.469 43.5938C478.292 40.9245 480.635 38.8411 483.5 37.3438C486.43 35.7812 489.555 35 492.875 35C495.023 35 497.172 35.3255 499.32 35.9766C488.188 17.3568 468.363 8.04688 439.848 8.04688ZM417.094 131.777C417.094 135.098 416.312 138.223 414.75 141.152C413.253 144.017 411.169 146.361 408.5 148.184C417.615 150.723 426.729 151.992 435.844 151.992C446.521 151.992 456.417 150.072 465.531 146.23C474.646 142.389 482.361 137.116 488.676 130.41C494.991 123.639 499.939 115.599 503.52 106.289C507.1 96.9141 508.891 86.8229 508.891 76.0156V75.625C503.812 87.7344 493.949 96.7839 479.301 102.773C475.329 110.456 469.503 116.576 461.82 121.133C454.203 125.69 445.544 127.969 435.844 127.969C429.268 127.969 422.693 127.253 416.117 125.82C416.768 127.773 417.094 129.759 417.094 131.777ZM464.262 65.7617C469.991 62.9622 472.855 59.3815 472.855 55.0195C472.855 50.6576 469.991 47.0768 464.262 44.2773C458.598 41.4128 450.46 39.9805 439.848 39.9805C429.236 39.9805 421.065 41.4128 415.336 44.2773C409.672 47.0768 406.84 50.6576 406.84 55.0195C406.84 59.3815 409.672 62.9622 415.336 65.7617C421.065 68.5612 429.236 69.9609 439.848 69.9609C450.46 69.9609 458.598 68.5612 464.262 65.7617ZM405.57 140.273C407.914 137.93 409.086 135.098 409.086 131.777C409.086 128.457 407.914 125.625 405.57 123.281C403.227 120.938 400.395 119.766 397.074 119.766C393.754 119.766 390.922 120.938 388.578 123.281C386.234 125.625 385.062 128.457 385.062 131.777C385.062 135.098 386.234 137.93 388.578 140.273C390.922 142.617 393.754 143.789 397.074 143.789C400.395 143.789 403.227 142.617 405.57 140.273ZM501.371 63.5156C503.715 61.1719 504.887 58.3398 504.887 55.0195C504.887 51.6992 503.715 48.8672 501.371 46.5234C499.027 44.1797 496.195 43.0078 492.875 43.0078C489.555 43.0078 486.723 44.1797 484.379 46.5234C482.035 48.8672 480.863 51.6992 480.863 55.0195C480.863 58.3398 482.035 61.1719 484.379 63.5156C486.723 65.8594 489.555 67.0312 492.875 67.0312C496.195 67.0312 499.027 65.8594 501.371 63.5156Z" fill="#667085"/>
</svg>
