<svg width="545" height="160" viewBox="0 0 545 160" fill="none" xmlns="http://www.w3.org/2000/svg">
<path d="M6.83203 95.8398L96.7734 5.80078C100.615 1.95964 105.367 0.0390625 111.031 0.0390625C116.565 0.0390625 121.253 1.99219 125.094 5.89844C129 9.73958 130.953 14.4271 130.953 19.9609V89.9805H141.012C146.546 89.9805 151.266 91.9336 155.172 95.8398C159.078 99.7461 161.031 104.466 161.031 110C161.031 115.534 159.078 120.254 155.172 124.16C151.266 128.066 146.546 130.02 141.012 130.02H130.953V139.98C130.953 145.514 129 150.234 125.094 154.141C121.253 158.047 116.565 160 111.031 160C105.497 160 100.777 158.047 96.8711 154.141C92.9648 150.234 91.0117 145.514 91.0117 139.98V130.02H20.9922C15.4583 130.02 10.7383 128.066 6.83203 124.16C2.92578 120.254 0.972656 115.534 0.972656 110C0.972656 104.661 2.92578 99.9414 6.83203 95.8398ZM24.2148 89.9805H58.1992L91.0117 57.168V23.1836L24.2148 89.9805ZM61.4219 97.9883L37.3984 122.012H91.0117V97.9883H61.4219ZM99.0195 60.3906V89.9805H123.043V36.3672L99.0195 60.3906ZM111.031 119.961C113.831 119.961 116.76 120.645 119.82 122.012H123.043V118.789C121.676 115.729 120.992 112.799 120.992 110C120.992 107.331 121.676 104.466 123.043 101.406V97.9883H99.0195V122.012H102.438C105.497 120.645 108.362 119.961 111.031 119.961ZM102.535 11.5625C100.191 13.8411 99.0195 16.6406 99.0195 19.9609C99.0195 23.2812 100.191 26.1133 102.535 28.457C104.879 30.8008 107.711 31.9727 111.031 31.9727C114.352 31.9727 117.184 30.8008 119.527 28.457C121.871 26.1133 123.043 23.2812 123.043 19.9609C123.043 16.6406 121.871 13.8411 119.527 11.5625C117.184 9.21875 114.352 8.04688 111.031 8.04688C107.711 8.04688 104.879 9.21875 102.535 11.5625ZM12.4961 118.496C14.8398 120.84 17.6719 122.012 20.9922 122.012C24.3125 122.012 27.1445 120.84 29.4883 118.496C31.832 116.152 33.0039 113.32 33.0039 110C33.0039 106.68 31.832 103.848 29.4883 101.504C27.1445 99.1602 24.3125 97.9883 20.9922 97.9883C17.6719 97.9883 14.8398 99.1602 12.4961 101.504C10.1523 103.848 8.98047 106.68 8.98047 110C8.98047 113.32 10.1523 116.152 12.4961 118.496ZM99.0195 139.98C99.0195 143.301 100.191 146.133 102.535 148.477C104.879 150.82 107.711 151.992 111.031 151.992C114.352 151.992 117.184 150.82 119.527 148.477C121.871 146.133 123.043 143.301 123.043 139.98C123.043 135.879 121.22 132.559 117.574 130.02H104.391C100.81 132.493 99.0195 135.814 99.0195 139.98ZM141.012 122.012C144.332 122.012 147.164 120.84 149.508 118.496C151.852 116.152 153.023 113.32 153.023 110C153.023 106.68 151.852 103.848 149.508 101.504C147.164 99.1602 144.332 97.9883 141.012 97.9883C136.78 97.9883 133.427 99.7786 130.953 103.359V116.641C133.427 120.221 136.78 122.012 141.012 122.012ZM69.4297 89.9805H91.0117V68.3984L69.4297 89.9805ZM37.0078 97.9883C39.1562 101.048 40.4909 104.173 41.0117 107.363L50.1914 97.9883H37.0078ZM108.395 39.9805C105.204 39.4596 102.079 38.125 99.0195 35.9766V49.1602L108.395 39.9805ZM209.277 34.4141C209.277 30.5729 210.319 27.1224 212.402 24.0625C214.551 21.0026 217.383 18.4635 220.898 16.4453C228.776 11.4323 237.956 7.46094 248.438 4.53125C258.919 1.53646 268.685 0.0390625 277.734 0.0390625C291.211 0.0390625 303.092 2.02474 313.379 5.99609C323.665 9.90234 331.771 15.8268 337.695 23.7695C343.685 31.6471 346.68 41.0547 346.68 51.9922C346.484 65.7292 342.448 76.4062 334.57 84.0234C326.758 91.6406 313.867 97.8255 295.898 102.578C278.711 107.201 265.723 112.995 256.934 119.961H330.859C336.393 119.961 341.113 121.914 345.02 125.82C348.926 129.727 350.879 134.447 350.879 139.98C350.879 145.514 348.926 150.234 345.02 154.141C341.113 158.047 336.393 160 330.859 160H224.902C219.368 160 214.648 158.047 210.742 154.141C206.836 150.234 204.883 145.514 204.883 139.98V137.637C205.078 131.712 205.99 126.113 207.617 120.84C209.31 115.501 211.621 110.716 214.551 106.484C217.546 102.188 220.898 98.2487 224.609 94.668C228.385 91.0221 232.682 87.6693 237.5 84.6094C242.318 81.5495 247.135 78.8477 251.953 76.5039C256.771 74.1602 262.012 71.9141 267.676 69.7656C270.28 68.7891 273.6 67.7799 277.637 66.7383C281.673 65.6966 285.221 64.7852 288.281 64.0039C291.341 63.1576 294.368 62.2135 297.363 61.1719C300.358 60.0651 302.669 58.763 304.297 57.2656C305.924 55.7031 306.738 53.9453 306.738 51.9922C306.738 49.2578 305.404 46.9792 302.734 45.1562C300.065 43.2682 296.615 41.9336 292.383 41.1523C288.216 40.3711 283.333 39.9805 277.734 39.9805C272.135 39.9805 267.188 40.4688 262.891 41.4453C258.659 42.4219 255.273 43.5286 252.734 44.7656C250.195 46.0026 245.931 48.2812 239.941 51.6016C236.491 53.4896 232.943 54.4336 229.297 54.4336C223.763 54.4336 219.043 52.4805 215.137 48.5742C211.23 44.668 209.277 39.9479 209.277 34.4141ZM314.746 51.9922C314.746 54.1406 314.355 56.0938 313.574 57.8516C312.858 59.6094 311.686 61.1719 310.059 62.5391C308.496 63.9062 306.934 65.0781 305.371 66.0547C303.809 67.0312 301.66 68.0078 298.926 68.9844C296.257 69.8958 293.978 70.6445 292.09 71.2305C290.267 71.7513 287.793 72.4023 284.668 73.1836C277.572 75.0716 270.801 77.3177 264.355 79.9219C257.91 82.526 251.367 85.7812 244.727 89.6875C238.086 93.5938 232.227 98.3464 227.148 103.945C222.07 109.479 218.327 115.566 215.918 122.207C219.043 120.71 222.038 119.961 224.902 119.961H245.508C254.818 109.609 270.964 101.211 293.945 94.7656C309.896 90.4688 321.322 85.1302 328.223 78.75C335.124 72.3698 338.607 63.4505 338.672 51.9922C338.672 42.7474 336.035 34.7721 330.762 28.0664C325.488 21.3607 318.294 16.3477 309.18 13.0273C300.13 9.70703 289.648 8.04688 277.734 8.04688C265.169 8.04688 251.953 10.8464 238.086 16.4453C241.471 18.2031 244.173 20.6771 246.191 23.8672C248.275 27.0573 249.316 30.5729 249.316 34.4141C249.316 35.9115 249.251 37.0508 249.121 37.832C257.52 33.9258 267.057 31.9727 277.734 31.9727C288.737 31.9727 297.656 33.6328 304.492 36.9531C311.328 40.2083 314.746 45.2214 314.746 51.9922ZM310.938 139.98C310.938 135.684 312.272 131.68 314.941 127.969H249.121C246.517 131.745 245.117 135.488 244.922 139.199V139.98C244.922 144.733 243.587 148.737 240.918 151.992H314.941C312.272 148.477 310.938 144.473 310.938 139.98ZM216.406 131.484C214.062 133.828 212.891 136.66 212.891 139.98C212.891 143.301 214.062 146.133 216.406 148.477C218.75 150.82 221.582 151.992 224.902 151.992C228.223 151.992 231.055 150.82 233.398 148.477C235.742 146.133 236.914 143.301 236.914 139.98C236.914 136.66 235.742 133.828 233.398 131.484C231.055 129.141 228.223 127.969 224.902 127.969C221.582 127.969 218.75 129.141 216.406 131.484ZM322.363 148.477C324.707 150.82 327.539 151.992 330.859 151.992C334.18 151.992 337.012 150.82 339.355 148.477C341.699 146.133 342.871 143.301 342.871 139.98C342.871 136.66 341.699 133.828 339.355 131.484C337.012 129.141 334.18 127.969 330.859 127.969C327.539 127.969 324.707 129.141 322.363 131.484C320.085 133.828 318.945 136.66 318.945 139.98C318.945 143.301 320.085 146.133 322.363 148.477ZM220.801 25.918C218.457 28.2617 217.285 31.0938 217.285 34.4141C217.285 37.7344 218.457 40.5664 220.801 42.9102C223.145 45.2539 225.977 46.4258 229.297 46.4258C232.617 46.4258 235.449 45.2539 237.793 42.9102C240.137 40.5664 241.309 37.7344 241.309 34.4141C241.309 31.0938 240.137 28.2617 237.793 25.918C235.449 23.5742 232.617 22.4023 229.297 22.4023C225.977 22.4023 223.145 23.5742 220.801 25.918ZM403.324 34.4141C403.324 30.5729 404.366 27.1224 406.449 24.0625C408.598 21.0026 411.43 18.4635 414.945 16.4453C422.823 11.4323 432.003 7.46094 442.484 4.53125C452.966 1.53646 462.732 0.0390625 471.781 0.0390625C485.258 0.0390625 497.139 2.02474 507.426 5.99609C517.712 9.90234 525.818 15.8268 531.742 23.7695C537.732 31.6471 540.727 41.0547 540.727 51.9922C540.531 65.7292 536.495 76.4062 528.617 84.0234C520.805 91.6406 507.914 97.8255 489.945 102.578C472.758 107.201 459.77 112.995 450.98 119.961H524.906C530.44 119.961 535.16 121.914 539.066 125.82C542.973 129.727 544.926 134.447 544.926 139.98C544.926 145.514 542.973 150.234 539.066 154.141C535.16 158.047 530.44 160 524.906 160H418.949C413.415 160 408.695 158.047 404.789 154.141C400.883 150.234 398.93 145.514 398.93 139.98V137.637C399.125 131.712 400.036 126.113 401.664 120.84C403.357 115.501 405.668 110.716 408.598 106.484C411.592 102.188 414.945 98.2487 418.656 94.668C422.432 91.0221 426.729 87.6693 431.547 84.6094C436.365 81.5495 441.182 78.8477 446 76.5039C450.818 74.1602 456.059 71.9141 461.723 69.7656C464.327 68.7891 467.647 67.7799 471.684 66.7383C475.72 65.6966 479.268 64.7852 482.328 64.0039C485.388 63.1576 488.415 62.2135 491.41 61.1719C494.405 60.0651 496.716 58.763 498.344 57.2656C499.971 55.7031 500.785 53.9453 500.785 51.9922C500.785 49.2578 499.451 46.9792 496.781 45.1562C494.112 43.2682 490.661 41.9336 486.43 41.1523C482.263 40.3711 477.38 39.9805 471.781 39.9805C466.182 39.9805 461.234 40.4688 456.938 41.4453C452.706 42.4219 449.32 43.5286 446.781 44.7656C444.242 46.0026 439.978 48.2812 433.988 51.6016C430.538 53.4896 426.99 54.4336 423.344 54.4336C417.81 54.4336 413.09 52.4805 409.184 48.5742C405.277 44.668 403.324 39.9479 403.324 34.4141ZM508.793 51.9922C508.793 54.1406 508.402 56.0938 507.621 57.8516C506.905 59.6094 505.733 61.1719 504.105 62.5391C502.543 63.9062 500.98 65.0781 499.418 66.0547C497.855 67.0312 495.707 68.0078 492.973 68.9844C490.303 69.8958 488.025 70.6445 486.137 71.2305C484.314 71.7513 481.84 72.4023 478.715 73.1836C471.618 75.0716 464.848 77.3177 458.402 79.9219C451.957 82.526 445.414 85.7812 438.773 89.6875C432.133 93.5938 426.273 98.3464 421.195 103.945C416.117 109.479 412.374 115.566 409.965 122.207C413.09 120.71 416.085 119.961 418.949 119.961H439.555C448.865 109.609 465.01 101.211 487.992 94.7656C503.943 90.4688 515.368 85.1302 522.27 78.75C529.171 72.3698 532.654 63.4505 532.719 51.9922C532.719 42.7474 530.082 34.7721 524.809 28.0664C519.535 21.3607 512.341 16.3477 503.227 13.0273C494.177 9.70703 483.695 8.04688 471.781 8.04688C459.216 8.04688 446 10.8464 432.133 16.4453C435.518 18.2031 438.22 20.6771 440.238 23.8672C442.322 27.0573 443.363 30.5729 443.363 34.4141C443.363 35.9115 443.298 37.0508 443.168 37.832C451.566 33.9258 461.104 31.9727 471.781 31.9727C482.784 31.9727 491.703 33.6328 498.539 36.9531C505.375 40.2083 508.793 45.2214 508.793 51.9922ZM504.984 139.98C504.984 135.684 506.319 131.68 508.988 127.969H443.168C440.564 131.745 439.164 135.488 438.969 139.199V139.98C438.969 144.733 437.634 148.737 434.965 151.992H508.988C506.319 148.477 504.984 144.473 504.984 139.98ZM410.453 131.484C408.109 133.828 406.938 136.66 406.938 139.98C406.938 143.301 408.109 146.133 410.453 148.477C412.797 150.82 415.629 151.992 418.949 151.992C422.27 151.992 425.102 150.82 427.445 148.477C429.789 146.133 430.961 143.301 430.961 139.98C430.961 136.66 429.789 133.828 427.445 131.484C425.102 129.141 422.27 127.969 418.949 127.969C415.629 127.969 412.797 129.141 410.453 131.484ZM516.41 148.477C518.754 150.82 521.586 151.992 524.906 151.992C528.227 151.992 531.059 150.82 533.402 148.477C535.746 146.133 536.918 143.301 536.918 139.98C536.918 136.66 535.746 133.828 533.402 131.484C531.059 129.141 528.227 127.969 524.906 127.969C521.586 127.969 518.754 129.141 516.41 131.484C514.132 133.828 512.992 136.66 512.992 139.98C512.992 143.301 514.132 146.133 516.41 148.477ZM414.848 25.918C412.504 28.2617 411.332 31.0938 411.332 34.4141C411.332 37.7344 412.504 40.5664 414.848 42.9102C417.191 45.2539 420.023 46.4258 423.344 46.4258C426.664 46.4258 429.496 45.2539 431.84 42.9102C434.184 40.5664 435.355 37.7344 435.355 34.4141C435.355 31.0938 434.184 28.2617 431.84 25.918C429.496 23.5742 426.664 22.4023 423.344 22.4023C420.023 22.4023 417.191 23.5742 414.848 25.918Z" fill="#667085"/>
</svg>
