<svg width="517" height="160" viewBox="0 0 517 160" fill="none" xmlns="http://www.w3.org/2000/svg">
<path d="M108.984 39.9805H49.2188L47.5586 55.0195C53.5482 54.3685 58.9518 54.043 63.7695 54.043C73.9258 54.043 83.1706 55.1497 91.5039 57.3633C99.8372 59.5768 107.096 62.832 113.281 67.1289C119.466 71.4258 124.251 76.9596 127.637 83.7305C131.087 90.5013 132.812 98.2487 132.812 106.973C132.812 115.697 131.087 123.477 127.637 130.312C124.251 137.083 119.466 142.617 113.281 146.914C107.096 151.211 99.8047 154.466 91.4062 156.68C83.0729 158.893 73.8607 160 63.7695 160C55.6315 160 46.9727 159.154 37.793 157.461C28.6133 155.768 20.7357 153.49 14.1602 150.625C10.319 149.193 7.16146 146.751 4.6875 143.301C2.21354 139.85 0.976562 136.009 0.976562 131.777C0.976562 126.243 2.92969 121.523 6.83594 117.617C10.7422 113.711 15.4622 111.758 20.9961 111.758C23.4049 111.758 25.6836 112.181 27.832 113.027C33.5612 115.371 39.1602 117.129 44.6289 118.301C50.0977 119.408 56.4779 119.961 63.7695 119.961C72.4935 119.961 79.4922 118.919 84.7656 116.836C90.1042 114.753 92.7734 111.465 92.7734 106.973C92.7734 102.48 90.1042 99.1927 84.7656 97.1094C79.4922 95.026 72.4935 93.9844 63.7695 93.9844C50.6185 93.9844 41.8945 95.1888 37.5977 97.5977C32.9102 100.527 28.7109 101.992 25 101.992C19.401 101.992 14.5508 100.007 10.4492 96.0352C6.34766 92.0638 4.52474 87.3763 4.98047 81.9727L11.0352 19.9609C11.556 14.2969 13.6393 9.57682 17.2852 5.80078C20.9961 1.95964 25.5534 0.0390625 30.957 0.0390625H108.984C114.518 0.0390625 119.238 1.99219 123.145 5.89844C127.051 9.73958 129.004 14.4271 129.004 19.9609C129.004 25.4948 127.051 30.2148 123.145 34.1211C119.238 38.0273 114.518 39.9805 108.984 39.9805ZM44.2383 87.6367C49.8372 86.5299 56.3477 85.9766 63.7695 85.9766C70.9961 85.9766 77.2461 86.6276 82.5195 87.9297C87.8581 89.1667 92.2201 91.4128 95.6055 94.668C99.056 97.8581 100.781 101.96 100.781 106.973C100.781 111.986 99.056 116.12 95.6055 119.375C92.2201 122.565 87.8581 124.811 82.5195 126.113C77.2461 127.35 70.9961 127.969 63.7695 127.969C55.3711 127.969 47.4609 127.122 40.0391 125.43C40.6901 127.578 41.0156 129.694 41.0156 131.777C41.0156 138.809 38.2161 144.277 32.6172 148.184C42.3828 150.723 52.7669 151.992 63.7695 151.992C72.7539 151.992 80.9245 151.081 88.2812 149.258C95.638 147.37 102.051 144.635 107.52 141.055C112.988 137.409 117.22 132.689 120.215 126.895C123.275 121.1 124.805 114.46 124.805 106.973C124.805 99.4857 123.275 92.8451 120.215 87.0508C117.22 81.2565 112.988 76.569 107.52 72.9883C102.051 69.3424 95.638 66.6081 88.2812 64.7852C80.9245 62.8971 72.7539 61.9531 63.7695 61.9531C58.4961 61.9531 52.832 62.3763 46.7773 63.2227L45.0195 81.9727C44.694 85.1628 44.4336 87.0508 44.2383 87.6367ZM88.9648 19.9609C88.9648 15.7292 90.2995 11.7578 92.9688 8.04688H46.9727C49.6419 11.4974 50.9766 15.4688 50.9766 19.9609C50.9766 21.7188 50.9115 22.9883 50.7812 23.7695L50 31.9727H92.9688C90.2995 28.457 88.9648 24.4531 88.9648 19.9609ZM41.2109 39.9805H30.957C25.7487 39.9805 21.2891 38.3203 17.5781 35L14.8438 64.9805L16.6016 63.8086C23.1771 60.3581 30.8594 57.819 39.6484 56.1914L41.2109 39.9805ZM22.4609 11.5625C20.1823 13.8411 19.043 16.6406 19.043 19.9609C19.043 23.2812 20.1823 26.1133 22.4609 28.457C24.8047 30.8008 27.6367 31.9727 30.957 31.9727C34.2773 31.9727 37.1094 30.8008 39.4531 28.457C41.7969 26.1133 42.9688 23.2812 42.9688 19.9609C42.9688 16.6406 41.7969 13.8411 39.4531 11.5625C37.1094 9.21875 34.2773 8.04688 30.957 8.04688C27.6367 8.04688 24.8047 9.21875 22.4609 11.5625ZM117.48 28.457C119.824 26.1133 120.996 23.2812 120.996 19.9609C120.996 16.6406 119.824 13.8411 117.48 11.5625C115.137 9.21875 112.305 8.04688 108.984 8.04688C105.664 8.04688 102.832 9.21875 100.488 11.5625C98.1445 13.8411 96.9727 16.6406 96.9727 19.9609C96.9727 23.2812 98.1445 26.1133 100.488 28.457C102.832 30.8008 105.664 31.9727 108.984 31.9727C112.305 31.9727 115.137 30.8008 117.48 28.457ZM12.5 123.281C10.1562 125.625 8.98438 128.457 8.98438 131.777C8.98438 135.098 10.1562 137.93 12.5 140.273C14.8438 142.617 17.6758 143.789 20.9961 143.789C24.3164 143.789 27.1484 142.617 29.4922 140.273C31.8359 137.93 33.0078 135.098 33.0078 131.777C33.0078 128.457 31.8359 125.625 29.4922 123.281C27.1484 120.938 24.3164 119.766 20.9961 119.766C17.6758 119.766 14.8438 120.938 12.5 123.281ZM33.4961 73.4766C31.1523 71.1328 28.3203 69.9609 25 69.9609C21.6797 69.9609 18.8477 71.1328 16.5039 73.4766C14.1602 75.8203 12.9883 78.6523 12.9883 81.9727C12.9883 85.293 14.1602 88.125 16.5039 90.4688C18.8477 92.8125 21.6797 93.9844 25 93.9844C28.3203 93.9844 31.1523 92.7799 33.4961 90.3711C35.8398 87.8971 37.0117 85.0977 37.0117 81.9727C37.0117 78.6523 35.8398 75.8203 33.4961 73.4766ZM38.5742 67.2266L38.7695 64.3945C38.444 64.4596 37.9557 64.5898 37.3047 64.7852C36.6536 64.9805 36.1654 65.1107 35.8398 65.1758C37.0117 65.8268 37.9232 66.5104 38.5742 67.2266ZM185.16 111.172C180.928 101.276 178.812 90.8919 178.812 80.0195C178.812 69.1471 180.928 58.7956 185.16 48.9648C189.392 39.069 195.056 30.5729 202.152 23.4766C209.314 16.3151 217.81 10.6185 227.641 6.38672C237.536 2.15495 247.921 0.0390625 258.793 0.0390625C269.665 0.0390625 280.017 2.15495 289.848 6.38672C299.743 10.6185 308.24 16.3151 315.336 23.4766C322.497 30.5729 328.194 39.069 332.426 48.9648C336.658 58.7956 338.773 69.1471 338.773 80.0195C338.773 90.8919 336.658 101.276 332.426 111.172C328.194 121.003 322.497 129.499 315.336 136.66C308.24 143.757 299.743 149.421 289.848 153.652C280.017 157.884 269.665 160 258.793 160C247.921 160 237.536 157.884 227.641 153.652C217.81 149.421 209.314 143.757 202.152 136.66C195.056 129.499 189.392 121.003 185.16 111.172ZM230.473 51.7969C222.66 59.6094 218.754 69.0169 218.754 80.0195C218.754 91.0221 222.66 100.43 230.473 108.242C238.35 116.055 247.79 119.961 258.793 119.961C269.796 119.961 279.203 116.055 287.016 108.242C294.893 100.43 298.832 91.0221 298.832 80.0195C298.832 69.0169 294.893 59.6094 287.016 51.7969C279.203 43.9193 269.796 39.9805 258.793 39.9805C247.79 39.9805 238.35 43.9193 230.473 51.7969ZM210.746 80.0195C210.746 73.5742 212.016 67.3893 214.555 61.4648C217.094 55.4753 220.512 50.332 224.809 46.0352C229.105 41.7383 234.216 38.3203 240.141 35.7812C246.13 33.2422 252.348 31.9727 258.793 31.9727C267.452 31.9727 275.46 34.1211 282.816 38.418C290.173 42.7148 296 48.5742 300.297 55.9961C304.594 63.3529 306.742 71.3607 306.742 80.0195C306.742 88.6784 304.594 96.6862 300.297 104.043C296 111.4 290.173 117.227 282.816 121.523C275.46 125.82 267.452 127.969 258.793 127.969C250.134 127.969 242.094 125.82 234.672 121.523C227.315 117.227 221.488 111.4 217.191 104.043C212.895 96.6862 210.746 88.6784 210.746 80.0195ZM192.484 52.0898C188.708 60.944 186.82 70.2539 186.82 80.0195C186.82 89.7852 188.708 99.1276 192.484 108.047C196.26 116.901 201.371 124.551 207.816 130.996C214.262 137.441 221.911 142.552 230.766 146.328C239.685 150.104 249.027 151.992 258.793 151.992C268.559 151.992 277.868 150.104 286.723 146.328C295.642 142.552 303.324 137.441 309.77 130.996C316.215 124.551 321.326 116.901 325.102 108.047C328.878 99.1276 330.766 89.7852 330.766 80.0195C330.766 70.2539 328.878 60.944 325.102 52.0898C321.326 43.1706 316.215 35.4883 309.77 29.043C303.324 22.5977 295.642 17.487 286.723 13.7109C277.868 9.9349 268.559 8.04688 258.793 8.04688C249.027 8.04688 239.685 9.9349 230.766 13.7109C221.911 17.487 214.262 22.5977 207.816 29.043C201.371 35.4883 196.26 43.1706 192.484 52.0898ZM423.445 94.1797C419.539 90.2734 417.586 85.5534 417.586 80.0195C417.586 74.4857 419.539 69.7656 423.445 65.8594C427.352 61.9531 432.072 60 437.605 60H447.566C466.902 60 476.57 56.6797 476.57 50.0391C476.57 43.3333 466.902 39.9805 447.566 39.9805C440.275 39.9805 433.895 40.5664 428.426 41.7383C423.022 42.9102 417.423 44.668 411.629 47.0117C409.676 47.793 407.397 48.1836 404.793 48.1836C399.259 48.1836 394.539 46.2305 390.633 42.3242C386.727 38.418 384.773 33.6979 384.773 28.1641C384.773 23.9974 385.978 20.2539 388.387 16.9336C390.861 13.6133 394.051 11.1068 397.957 9.41406C404.533 6.54948 412.41 4.27083 421.59 2.57812C430.77 0.885417 439.428 0.0390625 447.566 0.0390625C460.978 0.0390625 472.859 1.99219 483.211 5.89844C493.562 9.73958 501.701 15.4688 507.625 23.0859C513.615 30.7031 516.609 39.6875 516.609 50.0391C516.609 61.888 512.736 71.8815 504.988 80.0195C512.736 88.3529 516.609 98.3464 516.609 110C516.609 120.352 513.615 129.336 507.625 136.953C501.701 144.57 493.562 150.332 483.211 154.238C472.859 158.079 460.978 160 447.566 160C439.428 160 430.77 159.154 421.59 157.461C412.41 155.768 404.533 153.49 397.957 150.625C394.051 148.997 390.861 146.491 388.387 143.105C385.978 139.72 384.773 135.944 384.773 131.777C384.773 126.243 386.727 121.523 390.633 117.617C394.539 113.711 399.259 111.758 404.793 111.758C407.202 111.758 409.48 112.181 411.629 113.027C417.358 115.371 422.957 117.129 428.426 118.301C433.895 119.408 440.275 119.961 447.566 119.961C466.902 119.961 476.57 116.641 476.57 110C476.57 103.359 466.902 100.039 447.566 100.039H437.605C432.072 100.039 427.352 98.0859 423.445 94.1797ZM424.812 131.777C424.812 138.809 422.013 144.277 416.414 148.184C426.18 150.723 436.564 151.992 447.566 151.992C459.415 151.992 469.897 150.365 479.012 147.109C488.191 143.854 495.418 139.036 500.691 132.656C505.965 126.211 508.602 118.659 508.602 110C508.602 100.169 505.607 91.901 499.617 85.1953C492.651 90.4036 484.578 94.2122 475.398 96.6211C481.518 99.6159 484.578 104.076 484.578 110C484.578 121.979 472.241 127.969 447.566 127.969C439.168 127.969 431.258 127.122 423.836 125.43C424.487 127.578 424.812 129.694 424.812 131.777ZM424.812 28.1641C424.812 30.8333 424.487 32.9818 423.836 34.6094C431.518 32.8516 439.428 31.9727 447.566 31.9727C454.793 31.9727 461.043 32.526 466.316 33.6328C471.59 34.6745 475.952 36.5951 479.402 39.3945C482.853 42.1289 484.578 45.6771 484.578 50.0391C484.578 55.9635 481.518 60.4232 475.398 63.418C485.099 66.1523 493.172 70.026 499.617 75.0391C505.607 68.3333 508.602 60 508.602 50.0391C508.602 41.3802 505.965 33.8607 500.691 27.4805C495.418 21.0352 488.191 16.1849 479.012 12.9297C469.897 9.67448 459.415 8.04688 447.566 8.04688C437.02 8.04688 426.635 9.34896 416.414 11.9531C419.018 13.776 421.069 16.1198 422.566 18.9844C424.064 21.7839 424.812 24.8438 424.812 28.1641ZM493.953 80.0195C484.448 72.9883 471.069 69.0495 453.816 68.2031C456.355 71.5234 457.625 75.4622 457.625 80.0195C457.625 84.4466 456.355 88.4505 453.816 92.0312C470.874 91.25 484.253 87.2461 493.953 80.0195ZM413.289 140.273C415.633 137.93 416.805 135.098 416.805 131.777C416.805 128.457 415.633 125.625 413.289 123.281C410.945 120.938 408.113 119.766 404.793 119.766C401.473 119.766 398.641 120.938 396.297 123.281C393.953 125.625 392.781 128.457 392.781 131.777C392.781 135.098 393.953 137.93 396.297 140.273C398.641 142.617 401.473 143.789 404.793 143.789C408.113 143.789 410.945 142.617 413.289 140.273ZM429.109 71.5234C426.766 73.8672 425.594 76.6992 425.594 80.0195C425.594 83.3398 426.766 86.1719 429.109 88.5156C431.453 90.8594 434.285 92.0312 437.605 92.0312C440.926 92.0312 443.758 90.8594 446.102 88.5156C448.445 86.1719 449.617 83.3398 449.617 80.0195C449.617 76.6992 448.445 73.8672 446.102 71.5234C443.758 69.1797 440.926 68.0078 437.605 68.0078C434.285 68.0078 431.453 69.1797 429.109 71.5234ZM413.289 36.6602C415.633 34.3164 416.805 31.4844 416.805 28.1641C416.805 24.8438 415.633 22.0117 413.289 19.668C410.945 17.3242 408.113 16.1523 404.793 16.1523C401.473 16.1523 398.641 17.3242 396.297 19.668C393.953 22.0117 392.781 24.8438 392.781 28.1641C392.781 31.4844 393.953 34.3164 396.297 36.6602C398.641 39.0039 401.473 40.1758 404.793 40.1758C408.113 40.1758 410.945 39.0039 413.289 36.6602Z" fill="#667085"/>
</svg>
