<svg width="527" height="160" viewBox="0 0 527 160" fill="none" xmlns="http://www.w3.org/2000/svg">
<path d="M6.83203 95.8398L96.7734 5.80078C100.615 1.95964 105.367 0.0390625 111.031 0.0390625C116.565 0.0390625 121.253 1.99219 125.094 5.89844C129 9.73958 130.953 14.4271 130.953 19.9609V89.9805H141.012C146.546 89.9805 151.266 91.9336 155.172 95.8398C159.078 99.7461 161.031 104.466 161.031 110C161.031 115.534 159.078 120.254 155.172 124.16C151.266 128.066 146.546 130.02 141.012 130.02H130.953V139.98C130.953 145.514 129 150.234 125.094 154.141C121.253 158.047 116.565 160 111.031 160C105.497 160 100.777 158.047 96.8711 154.141C92.9648 150.234 91.0117 145.514 91.0117 139.98V130.02H20.9922C15.4583 130.02 10.7383 128.066 6.83203 124.16C2.92578 120.254 0.972656 115.534 0.972656 110C0.972656 104.661 2.92578 99.9414 6.83203 95.8398ZM24.2148 89.9805H58.1992L91.0117 57.168V23.1836L24.2148 89.9805ZM61.4219 97.9883L37.3984 122.012H91.0117V97.9883H61.4219ZM99.0195 60.3906V89.9805H123.043V36.3672L99.0195 60.3906ZM111.031 119.961C113.831 119.961 116.76 120.645 119.82 122.012H123.043V118.789C121.676 115.729 120.992 112.799 120.992 110C120.992 107.331 121.676 104.466 123.043 101.406V97.9883H99.0195V122.012H102.438C105.497 120.645 108.362 119.961 111.031 119.961ZM102.535 11.5625C100.191 13.8411 99.0195 16.6406 99.0195 19.9609C99.0195 23.2812 100.191 26.1133 102.535 28.457C104.879 30.8008 107.711 31.9727 111.031 31.9727C114.352 31.9727 117.184 30.8008 119.527 28.457C121.871 26.1133 123.043 23.2812 123.043 19.9609C123.043 16.6406 121.871 13.8411 119.527 11.5625C117.184 9.21875 114.352 8.04688 111.031 8.04688C107.711 8.04688 104.879 9.21875 102.535 11.5625ZM12.4961 118.496C14.8398 120.84 17.6719 122.012 20.9922 122.012C24.3125 122.012 27.1445 120.84 29.4883 118.496C31.832 116.152 33.0039 113.32 33.0039 110C33.0039 106.68 31.832 103.848 29.4883 101.504C27.1445 99.1602 24.3125 97.9883 20.9922 97.9883C17.6719 97.9883 14.8398 99.1602 12.4961 101.504C10.1523 103.848 8.98047 106.68 8.98047 110C8.98047 113.32 10.1523 116.152 12.4961 118.496ZM99.0195 139.98C99.0195 143.301 100.191 146.133 102.535 148.477C104.879 150.82 107.711 151.992 111.031 151.992C114.352 151.992 117.184 150.82 119.527 148.477C121.871 146.133 123.043 143.301 123.043 139.98C123.043 135.879 121.22 132.559 117.574 130.02H104.391C100.81 132.493 99.0195 135.814 99.0195 139.98ZM141.012 122.012C144.332 122.012 147.164 120.84 149.508 118.496C151.852 116.152 153.023 113.32 153.023 110C153.023 106.68 151.852 103.848 149.508 101.504C147.164 99.1602 144.332 97.9883 141.012 97.9883C136.78 97.9883 133.427 99.7786 130.953 103.359V116.641C133.427 120.221 136.78 122.012 141.012 122.012ZM69.4297 89.9805H91.0117V68.3984L69.4297 89.9805ZM37.0078 97.9883C39.1562 101.048 40.4909 104.173 41.0117 107.363L50.1914 97.9883H37.0078ZM108.395 39.9805C105.204 39.4596 102.079 38.125 99.0195 35.9766V49.1602L108.395 39.9805ZM209.277 111.172C205.046 101.276 202.93 90.8919 202.93 80.0195C202.93 69.1471 205.046 58.7956 209.277 48.9648C213.509 39.069 219.173 30.5729 226.27 23.4766C233.431 16.3151 241.927 10.6185 251.758 6.38672C261.654 2.15495 272.038 0.0390625 282.91 0.0390625C293.783 0.0390625 304.134 2.15495 313.965 6.38672C323.861 10.6185 332.357 16.3151 339.453 23.4766C346.615 30.5729 352.311 39.069 356.543 48.9648C360.775 58.7956 362.891 69.1471 362.891 80.0195C362.891 90.8919 360.775 101.276 356.543 111.172C352.311 121.003 346.615 129.499 339.453 136.66C332.357 143.757 323.861 149.421 313.965 153.652C304.134 157.884 293.783 160 282.91 160C272.038 160 261.654 157.884 251.758 153.652C241.927 149.421 233.431 143.757 226.27 136.66C219.173 129.499 213.509 121.003 209.277 111.172ZM254.59 51.7969C246.777 59.6094 242.871 69.0169 242.871 80.0195C242.871 91.0221 246.777 100.43 254.59 108.242C262.467 116.055 271.908 119.961 282.91 119.961C293.913 119.961 303.32 116.055 311.133 108.242C319.01 100.43 322.949 91.0221 322.949 80.0195C322.949 69.0169 319.01 59.6094 311.133 51.7969C303.32 43.9193 293.913 39.9805 282.91 39.9805C271.908 39.9805 262.467 43.9193 254.59 51.7969ZM234.863 80.0195C234.863 73.5742 236.133 67.3893 238.672 61.4648C241.211 55.4753 244.629 50.332 248.926 46.0352C253.223 41.7383 258.333 38.3203 264.258 35.7812C270.247 33.2422 276.465 31.9727 282.91 31.9727C291.569 31.9727 299.577 34.1211 306.934 38.418C314.29 42.7148 320.117 48.5742 324.414 55.9961C328.711 63.3529 330.859 71.3607 330.859 80.0195C330.859 88.6784 328.711 96.6862 324.414 104.043C320.117 111.4 314.29 117.227 306.934 121.523C299.577 125.82 291.569 127.969 282.91 127.969C274.251 127.969 266.211 125.82 258.789 121.523C251.432 117.227 245.605 111.4 241.309 104.043C237.012 96.6862 234.863 88.6784 234.863 80.0195ZM216.602 52.0898C212.826 60.944 210.938 70.2539 210.938 80.0195C210.938 89.7852 212.826 99.1276 216.602 108.047C220.378 116.901 225.488 124.551 231.934 130.996C238.379 137.441 246.029 142.552 254.883 146.328C263.802 150.104 273.145 151.992 282.91 151.992C292.676 151.992 301.986 150.104 310.84 146.328C319.759 142.552 327.441 137.441 333.887 130.996C340.332 124.551 345.443 116.901 349.219 108.047C352.995 99.1276 354.883 89.7852 354.883 80.0195C354.883 70.2539 352.995 60.944 349.219 52.0898C345.443 43.1706 340.332 35.4883 333.887 29.043C327.441 22.5977 319.759 17.487 310.84 13.7109C301.986 9.9349 292.676 8.04688 282.91 8.04688C273.145 8.04688 263.802 9.9349 254.883 13.7109C246.029 17.487 238.379 22.5977 231.934 29.043C225.488 35.4883 220.378 43.1706 216.602 52.0898ZM466.898 0.0390625C472.432 0.0390625 477.152 1.99219 481.059 5.89844C484.965 9.73958 486.918 14.4271 486.918 19.9609V119.961H506.938C512.471 119.961 517.191 121.914 521.098 125.82C525.004 129.727 526.957 134.447 526.957 139.98C526.957 145.514 525.004 150.234 521.098 154.141C517.191 158.047 512.471 160 506.938 160H426.957C421.423 160 416.703 158.047 412.797 154.141C408.891 150.234 406.938 145.514 406.938 139.98C406.938 134.447 408.891 129.727 412.797 125.82C416.703 121.914 421.423 119.961 426.957 119.961H446.879V39.9805H436.918C431.384 39.9805 426.664 38.0273 422.758 34.1211C418.852 30.2148 416.898 25.4948 416.898 19.9609C416.898 14.4271 418.852 9.73958 422.758 5.89844C426.664 1.99219 431.384 0.0390625 436.918 0.0390625H466.898ZM466.898 39.9805H454.887V119.961H478.91V35.9766C475.655 38.6458 471.651 39.9805 466.898 39.9805ZM454.887 139.98C454.887 143.171 455.961 145.938 458.109 148.281C460.323 150.56 462.927 151.797 465.922 151.992H466.898C470.219 151.992 473.051 150.82 475.395 148.477C477.738 146.133 478.91 143.301 478.91 139.98C478.91 136.921 477.836 134.251 475.688 131.973C473.539 129.629 470.935 128.294 467.875 127.969H466.898C463.578 127.969 460.746 129.141 458.402 131.484C456.059 133.828 454.887 136.66 454.887 139.98ZM418.461 148.477C420.805 150.82 423.637 151.992 426.957 151.992C430.277 151.992 433.077 150.82 435.355 148.477C437.699 146.133 438.871 143.301 438.871 139.98C438.871 136.66 437.699 133.828 435.355 131.484C433.077 129.141 430.277 127.969 426.957 127.969C423.637 127.969 420.805 129.141 418.461 131.484C416.117 133.828 414.945 136.66 414.945 139.98C414.945 143.301 416.117 146.133 418.461 148.477ZM498.441 148.477C500.785 150.82 503.617 151.992 506.938 151.992C510.258 151.992 513.09 150.82 515.434 148.477C517.777 146.133 518.949 143.301 518.949 139.98C518.949 136.66 517.777 133.828 515.434 131.484C513.09 129.141 510.258 127.969 506.938 127.969C503.617 127.969 500.785 129.141 498.441 131.484C496.098 133.828 494.926 136.66 494.926 139.98C494.926 143.301 496.098 146.133 498.441 148.477ZM456.938 19.9609C456.938 22.2396 456.677 24.0625 456.156 25.4297C457.133 27.4479 458.598 29.043 460.551 30.2148C462.504 31.3867 464.62 31.9727 466.898 31.9727C470.219 31.9727 473.051 30.8008 475.395 28.457C477.738 26.1133 478.91 23.2812 478.91 19.9609C478.91 16.6406 477.738 13.8411 475.395 11.5625C473.051 9.21875 470.219 8.04688 466.898 8.04688C464.62 8.04688 462.504 8.66536 460.551 9.90234C458.598 11.0742 457.133 12.6367 456.156 14.5898C456.677 16.1523 456.938 17.9427 456.938 19.9609ZM436.918 31.9727C441.085 31.9727 444.405 30.1823 446.879 26.6016V19.9609C446.879 18.138 447.172 16.3477 447.758 14.5898C446.781 12.6367 445.316 11.0742 443.363 9.90234C441.41 8.66536 439.262 8.04688 436.918 8.04688C433.598 8.04688 430.766 9.21875 428.422 11.5625C426.078 13.8411 424.906 16.6406 424.906 19.9609C424.906 23.2812 426.078 26.1133 428.422 28.457C430.766 30.8008 433.598 31.9727 436.918 31.9727ZM450.883 151.992C448.409 148.932 447.074 145.189 446.879 140.762C446.684 145.189 445.349 148.932 442.875 151.992H450.883ZM486.918 140.762C486.723 145.189 485.388 148.932 482.914 151.992H490.922C488.448 148.932 487.113 145.189 486.918 140.762ZM486.918 139.199C487.113 134.967 488.448 131.224 490.922 127.969H486.918V139.199ZM442.875 127.969C445.349 131.224 446.684 134.967 446.879 139.199V127.969H442.875Z" fill="#667085"/>
</svg>
