<svg width="541" height="160" viewBox="0 0 541 160" fill="none" xmlns="http://www.w3.org/2000/svg">
<path d="M6.83203 95.8398L96.7734 5.80078C100.615 1.95964 105.367 0.0390625 111.031 0.0390625C116.565 0.0390625 121.253 1.99219 125.094 5.89844C129 9.73958 130.953 14.4271 130.953 19.9609V89.9805H141.012C146.546 89.9805 151.266 91.9336 155.172 95.8398C159.078 99.7461 161.031 104.466 161.031 110C161.031 115.534 159.078 120.254 155.172 124.16C151.266 128.066 146.546 130.02 141.012 130.02H130.953V139.98C130.953 145.514 129 150.234 125.094 154.141C121.253 158.047 116.565 160 111.031 160C105.497 160 100.777 158.047 96.8711 154.141C92.9648 150.234 91.0117 145.514 91.0117 139.98V130.02H20.9922C15.4583 130.02 10.7383 128.066 6.83203 124.16C2.92578 120.254 0.972656 115.534 0.972656 110C0.972656 104.661 2.92578 99.9414 6.83203 95.8398ZM24.2148 89.9805H58.1992L91.0117 57.168V23.1836L24.2148 89.9805ZM61.4219 97.9883L37.3984 122.012H91.0117V97.9883H61.4219ZM99.0195 60.3906V89.9805H123.043V36.3672L99.0195 60.3906ZM111.031 119.961C113.831 119.961 116.76 120.645 119.82 122.012H123.043V118.789C121.676 115.729 120.992 112.799 120.992 110C120.992 107.331 121.676 104.466 123.043 101.406V97.9883H99.0195V122.012H102.438C105.497 120.645 108.362 119.961 111.031 119.961ZM102.535 11.5625C100.191 13.8411 99.0195 16.6406 99.0195 19.9609C99.0195 23.2812 100.191 26.1133 102.535 28.457C104.879 30.8008 107.711 31.9727 111.031 31.9727C114.352 31.9727 117.184 30.8008 119.527 28.457C121.871 26.1133 123.043 23.2812 123.043 19.9609C123.043 16.6406 121.871 13.8411 119.527 11.5625C117.184 9.21875 114.352 8.04688 111.031 8.04688C107.711 8.04688 104.879 9.21875 102.535 11.5625ZM12.4961 118.496C14.8398 120.84 17.6719 122.012 20.9922 122.012C24.3125 122.012 27.1445 120.84 29.4883 118.496C31.832 116.152 33.0039 113.32 33.0039 110C33.0039 106.68 31.832 103.848 29.4883 101.504C27.1445 99.1602 24.3125 97.9883 20.9922 97.9883C17.6719 97.9883 14.8398 99.1602 12.4961 101.504C10.1523 103.848 8.98047 106.68 8.98047 110C8.98047 113.32 10.1523 116.152 12.4961 118.496ZM99.0195 139.98C99.0195 143.301 100.191 146.133 102.535 148.477C104.879 150.82 107.711 151.992 111.031 151.992C114.352 151.992 117.184 150.82 119.527 148.477C121.871 146.133 123.043 143.301 123.043 139.98C123.043 135.879 121.22 132.559 117.574 130.02H104.391C100.81 132.493 99.0195 135.814 99.0195 139.98ZM141.012 122.012C144.332 122.012 147.164 120.84 149.508 118.496C151.852 116.152 153.023 113.32 153.023 110C153.023 106.68 151.852 103.848 149.508 101.504C147.164 99.1602 144.332 97.9883 141.012 97.9883C136.78 97.9883 133.427 99.7786 130.953 103.359V116.641C133.427 120.221 136.78 122.012 141.012 122.012ZM69.4297 89.9805H91.0117V68.3984L69.4297 89.9805ZM37.0078 97.9883C39.1562 101.048 40.4909 104.173 41.0117 107.363L50.1914 97.9883H37.0078ZM108.395 39.9805C105.204 39.4596 102.079 38.125 99.0195 35.9766V49.1602L108.395 39.9805ZM209.277 111.172C205.046 101.276 202.93 90.8919 202.93 80.0195C202.93 69.1471 205.046 58.7956 209.277 48.9648C213.509 39.069 219.173 30.5729 226.27 23.4766C233.431 16.3151 241.927 10.6185 251.758 6.38672C261.654 2.15495 272.038 0.0390625 282.91 0.0390625C293.783 0.0390625 304.134 2.15495 313.965 6.38672C323.861 10.6185 332.357 16.3151 339.453 23.4766C346.615 30.5729 352.311 39.069 356.543 48.9648C360.775 58.7956 362.891 69.1471 362.891 80.0195C362.891 90.8919 360.775 101.276 356.543 111.172C352.311 121.003 346.615 129.499 339.453 136.66C332.357 143.757 323.861 149.421 313.965 153.652C304.134 157.884 293.783 160 282.91 160C272.038 160 261.654 157.884 251.758 153.652C241.927 149.421 233.431 143.757 226.27 136.66C219.173 129.499 213.509 121.003 209.277 111.172ZM254.59 51.7969C246.777 59.6094 242.871 69.0169 242.871 80.0195C242.871 91.0221 246.777 100.43 254.59 108.242C262.467 116.055 271.908 119.961 282.91 119.961C293.913 119.961 303.32 116.055 311.133 108.242C319.01 100.43 322.949 91.0221 322.949 80.0195C322.949 69.0169 319.01 59.6094 311.133 51.7969C303.32 43.9193 293.913 39.9805 282.91 39.9805C271.908 39.9805 262.467 43.9193 254.59 51.7969ZM234.863 80.0195C234.863 73.5742 236.133 67.3893 238.672 61.4648C241.211 55.4753 244.629 50.332 248.926 46.0352C253.223 41.7383 258.333 38.3203 264.258 35.7812C270.247 33.2422 276.465 31.9727 282.91 31.9727C291.569 31.9727 299.577 34.1211 306.934 38.418C314.29 42.7148 320.117 48.5742 324.414 55.9961C328.711 63.3529 330.859 71.3607 330.859 80.0195C330.859 88.6784 328.711 96.6862 324.414 104.043C320.117 111.4 314.29 117.227 306.934 121.523C299.577 125.82 291.569 127.969 282.91 127.969C274.251 127.969 266.211 125.82 258.789 121.523C251.432 117.227 245.605 111.4 241.309 104.043C237.012 96.6862 234.863 88.6784 234.863 80.0195ZM216.602 52.0898C212.826 60.944 210.938 70.2539 210.938 80.0195C210.938 89.7852 212.826 99.1276 216.602 108.047C220.378 116.901 225.488 124.551 231.934 130.996C238.379 137.441 246.029 142.552 254.883 146.328C263.802 150.104 273.145 151.992 282.91 151.992C292.676 151.992 301.986 150.104 310.84 146.328C319.759 142.552 327.441 137.441 333.887 130.996C340.332 124.551 345.443 116.901 349.219 108.047C352.995 99.1276 354.883 89.7852 354.883 80.0195C354.883 70.2539 352.995 60.944 349.219 52.0898C345.443 43.1706 340.332 35.4883 333.887 29.043C327.441 22.5977 319.759 17.487 310.84 13.7109C301.986 9.9349 292.676 8.04688 282.91 8.04688C273.145 8.04688 263.802 9.9349 254.883 13.7109C246.029 17.487 238.379 22.5977 231.934 29.043C225.488 35.4883 220.378 43.1706 216.602 52.0898ZM516.898 39.9805H457.133L455.473 55.0195C461.462 54.3685 466.866 54.043 471.684 54.043C481.84 54.043 491.085 55.1497 499.418 57.3633C507.751 59.5768 515.01 62.832 521.195 67.1289C527.38 71.4258 532.165 76.9596 535.551 83.7305C539.001 90.5013 540.727 98.2487 540.727 106.973C540.727 115.697 539.001 123.477 535.551 130.312C532.165 137.083 527.38 142.617 521.195 146.914C515.01 151.211 507.719 154.466 499.32 156.68C490.987 158.893 481.775 160 471.684 160C463.546 160 454.887 159.154 445.707 157.461C436.527 155.768 428.65 153.49 422.074 150.625C418.233 149.193 415.076 146.751 412.602 143.301C410.128 139.85 408.891 136.009 408.891 131.777C408.891 126.243 410.844 121.523 414.75 117.617C418.656 113.711 423.376 111.758 428.91 111.758C431.319 111.758 433.598 112.181 435.746 113.027C441.475 115.371 447.074 117.129 452.543 118.301C458.012 119.408 464.392 119.961 471.684 119.961C480.408 119.961 487.406 118.919 492.68 116.836C498.018 114.753 500.688 111.465 500.688 106.973C500.688 102.48 498.018 99.1927 492.68 97.1094C487.406 95.026 480.408 93.9844 471.684 93.9844C458.533 93.9844 449.809 95.1888 445.512 97.5977C440.824 100.527 436.625 101.992 432.914 101.992C427.315 101.992 422.465 100.007 418.363 96.0352C414.262 92.0638 412.439 87.3763 412.895 81.9727L418.949 19.9609C419.47 14.2969 421.553 9.57682 425.199 5.80078C428.91 1.95964 433.467 0.0390625 438.871 0.0390625H516.898C522.432 0.0390625 527.152 1.99219 531.059 5.89844C534.965 9.73958 536.918 14.4271 536.918 19.9609C536.918 25.4948 534.965 30.2148 531.059 34.1211C527.152 38.0273 522.432 39.9805 516.898 39.9805ZM452.152 87.6367C457.751 86.5299 464.262 85.9766 471.684 85.9766C478.91 85.9766 485.16 86.6276 490.434 87.9297C495.772 89.1667 500.134 91.4128 503.52 94.668C506.97 97.8581 508.695 101.96 508.695 106.973C508.695 111.986 506.97 116.12 503.52 119.375C500.134 122.565 495.772 124.811 490.434 126.113C485.16 127.35 478.91 127.969 471.684 127.969C463.285 127.969 455.375 127.122 447.953 125.43C448.604 127.578 448.93 129.694 448.93 131.777C448.93 138.809 446.13 144.277 440.531 148.184C450.297 150.723 460.681 151.992 471.684 151.992C480.668 151.992 488.839 151.081 496.195 149.258C503.552 147.37 509.965 144.635 515.434 141.055C520.902 137.409 525.134 132.689 528.129 126.895C531.189 121.1 532.719 114.46 532.719 106.973C532.719 99.4857 531.189 92.8451 528.129 87.0508C525.134 81.2565 520.902 76.569 515.434 72.9883C509.965 69.3424 503.552 66.6081 496.195 64.7852C488.839 62.8971 480.668 61.9531 471.684 61.9531C466.41 61.9531 460.746 62.3763 454.691 63.2227L452.934 81.9727C452.608 85.1628 452.348 87.0508 452.152 87.6367ZM496.879 19.9609C496.879 15.7292 498.214 11.7578 500.883 8.04688H454.887C457.556 11.4974 458.891 15.4688 458.891 19.9609C458.891 21.7188 458.826 22.9883 458.695 23.7695L457.914 31.9727H500.883C498.214 28.457 496.879 24.4531 496.879 19.9609ZM449.125 39.9805H438.871C433.663 39.9805 429.203 38.3203 425.492 35L422.758 64.9805L424.516 63.8086C431.091 60.3581 438.773 57.819 447.562 56.1914L449.125 39.9805ZM430.375 11.5625C428.096 13.8411 426.957 16.6406 426.957 19.9609C426.957 23.2812 428.096 26.1133 430.375 28.457C432.719 30.8008 435.551 31.9727 438.871 31.9727C442.191 31.9727 445.023 30.8008 447.367 28.457C449.711 26.1133 450.883 23.2812 450.883 19.9609C450.883 16.6406 449.711 13.8411 447.367 11.5625C445.023 9.21875 442.191 8.04688 438.871 8.04688C435.551 8.04688 432.719 9.21875 430.375 11.5625ZM525.395 28.457C527.738 26.1133 528.91 23.2812 528.91 19.9609C528.91 16.6406 527.738 13.8411 525.395 11.5625C523.051 9.21875 520.219 8.04688 516.898 8.04688C513.578 8.04688 510.746 9.21875 508.402 11.5625C506.059 13.8411 504.887 16.6406 504.887 19.9609C504.887 23.2812 506.059 26.1133 508.402 28.457C510.746 30.8008 513.578 31.9727 516.898 31.9727C520.219 31.9727 523.051 30.8008 525.395 28.457ZM420.414 123.281C418.07 125.625 416.898 128.457 416.898 131.777C416.898 135.098 418.07 137.93 420.414 140.273C422.758 142.617 425.59 143.789 428.91 143.789C432.23 143.789 435.062 142.617 437.406 140.273C439.75 137.93 440.922 135.098 440.922 131.777C440.922 128.457 439.75 125.625 437.406 123.281C435.062 120.938 432.23 119.766 428.91 119.766C425.59 119.766 422.758 120.938 420.414 123.281ZM441.41 73.4766C439.066 71.1328 436.234 69.9609 432.914 69.9609C429.594 69.9609 426.762 71.1328 424.418 73.4766C422.074 75.8203 420.902 78.6523 420.902 81.9727C420.902 85.293 422.074 88.125 424.418 90.4688C426.762 92.8125 429.594 93.9844 432.914 93.9844C436.234 93.9844 439.066 92.7799 441.41 90.3711C443.754 87.8971 444.926 85.0977 444.926 81.9727C444.926 78.6523 443.754 75.8203 441.41 73.4766ZM446.488 67.2266L446.684 64.3945C446.358 64.4596 445.87 64.5898 445.219 64.7852C444.568 64.9805 444.079 65.1107 443.754 65.1758C444.926 65.8268 445.837 66.5104 446.488 67.2266Z" fill="#667085"/>
</svg>
