<svg width="543" height="160" viewBox="0 0 543 160" fill="none" xmlns="http://www.w3.org/2000/svg">
<path d="M108.984 39.9805H49.2188L47.5586 55.0195C53.5482 54.3685 58.9518 54.043 63.7695 54.043C73.9258 54.043 83.1706 55.1497 91.5039 57.3633C99.8372 59.5768 107.096 62.832 113.281 67.1289C119.466 71.4258 124.251 76.9596 127.637 83.7305C131.087 90.5013 132.812 98.2487 132.812 106.973C132.812 115.697 131.087 123.477 127.637 130.312C124.251 137.083 119.466 142.617 113.281 146.914C107.096 151.211 99.8047 154.466 91.4062 156.68C83.0729 158.893 73.8607 160 63.7695 160C55.6315 160 46.9727 159.154 37.793 157.461C28.6133 155.768 20.7357 153.49 14.1602 150.625C10.319 149.193 7.16146 146.751 4.6875 143.301C2.21354 139.85 0.976562 136.009 0.976562 131.777C0.976562 126.243 2.92969 121.523 6.83594 117.617C10.7422 113.711 15.4622 111.758 20.9961 111.758C23.4049 111.758 25.6836 112.181 27.832 113.027C33.5612 115.371 39.1602 117.129 44.6289 118.301C50.0977 119.408 56.4779 119.961 63.7695 119.961C72.4935 119.961 79.4922 118.919 84.7656 116.836C90.1042 114.753 92.7734 111.465 92.7734 106.973C92.7734 102.48 90.1042 99.1927 84.7656 97.1094C79.4922 95.026 72.4935 93.9844 63.7695 93.9844C50.6185 93.9844 41.8945 95.1888 37.5977 97.5977C32.9102 100.527 28.7109 101.992 25 101.992C19.401 101.992 14.5508 100.007 10.4492 96.0352C6.34766 92.0638 4.52474 87.3763 4.98047 81.9727L11.0352 19.9609C11.556 14.2969 13.6393 9.57682 17.2852 5.80078C20.9961 1.95964 25.5534 0.0390625 30.957 0.0390625H108.984C114.518 0.0390625 119.238 1.99219 123.145 5.89844C127.051 9.73958 129.004 14.4271 129.004 19.9609C129.004 25.4948 127.051 30.2148 123.145 34.1211C119.238 38.0273 114.518 39.9805 108.984 39.9805ZM44.2383 87.6367C49.8372 86.5299 56.3477 85.9766 63.7695 85.9766C70.9961 85.9766 77.2461 86.6276 82.5195 87.9297C87.8581 89.1667 92.2201 91.4128 95.6055 94.668C99.056 97.8581 100.781 101.96 100.781 106.973C100.781 111.986 99.056 116.12 95.6055 119.375C92.2201 122.565 87.8581 124.811 82.5195 126.113C77.2461 127.35 70.9961 127.969 63.7695 127.969C55.3711 127.969 47.4609 127.122 40.0391 125.43C40.6901 127.578 41.0156 129.694 41.0156 131.777C41.0156 138.809 38.2161 144.277 32.6172 148.184C42.3828 150.723 52.7669 151.992 63.7695 151.992C72.7539 151.992 80.9245 151.081 88.2812 149.258C95.638 147.37 102.051 144.635 107.52 141.055C112.988 137.409 117.22 132.689 120.215 126.895C123.275 121.1 124.805 114.46 124.805 106.973C124.805 99.4857 123.275 92.8451 120.215 87.0508C117.22 81.2565 112.988 76.569 107.52 72.9883C102.051 69.3424 95.638 66.6081 88.2812 64.7852C80.9245 62.8971 72.7539 61.9531 63.7695 61.9531C58.4961 61.9531 52.832 62.3763 46.7773 63.2227L45.0195 81.9727C44.694 85.1628 44.4336 87.0508 44.2383 87.6367ZM88.9648 19.9609C88.9648 15.7292 90.2995 11.7578 92.9688 8.04688H46.9727C49.6419 11.4974 50.9766 15.4688 50.9766 19.9609C50.9766 21.7188 50.9115 22.9883 50.7812 23.7695L50 31.9727H92.9688C90.2995 28.457 88.9648 24.4531 88.9648 19.9609ZM41.2109 39.9805H30.957C25.7487 39.9805 21.2891 38.3203 17.5781 35L14.8438 64.9805L16.6016 63.8086C23.1771 60.3581 30.8594 57.819 39.6484 56.1914L41.2109 39.9805ZM22.4609 11.5625C20.1823 13.8411 19.043 16.6406 19.043 19.9609C19.043 23.2812 20.1823 26.1133 22.4609 28.457C24.8047 30.8008 27.6367 31.9727 30.957 31.9727C34.2773 31.9727 37.1094 30.8008 39.4531 28.457C41.7969 26.1133 42.9688 23.2812 42.9688 19.9609C42.9688 16.6406 41.7969 13.8411 39.4531 11.5625C37.1094 9.21875 34.2773 8.04688 30.957 8.04688C27.6367 8.04688 24.8047 9.21875 22.4609 11.5625ZM117.48 28.457C119.824 26.1133 120.996 23.2812 120.996 19.9609C120.996 16.6406 119.824 13.8411 117.48 11.5625C115.137 9.21875 112.305 8.04688 108.984 8.04688C105.664 8.04688 102.832 9.21875 100.488 11.5625C98.1445 13.8411 96.9727 16.6406 96.9727 19.9609C96.9727 23.2812 98.1445 26.1133 100.488 28.457C102.832 30.8008 105.664 31.9727 108.984 31.9727C112.305 31.9727 115.137 30.8008 117.48 28.457ZM12.5 123.281C10.1562 125.625 8.98438 128.457 8.98438 131.777C8.98438 135.098 10.1562 137.93 12.5 140.273C14.8438 142.617 17.6758 143.789 20.9961 143.789C24.3164 143.789 27.1484 142.617 29.4922 140.273C31.8359 137.93 33.0078 135.098 33.0078 131.777C33.0078 128.457 31.8359 125.625 29.4922 123.281C27.1484 120.938 24.3164 119.766 20.9961 119.766C17.6758 119.766 14.8438 120.938 12.5 123.281ZM33.4961 73.4766C31.1523 71.1328 28.3203 69.9609 25 69.9609C21.6797 69.9609 18.8477 71.1328 16.5039 73.4766C14.1602 75.8203 12.9883 78.6523 12.9883 81.9727C12.9883 85.293 14.1602 88.125 16.5039 90.4688C18.8477 92.8125 21.6797 93.9844 25 93.9844C28.3203 93.9844 31.1523 92.7799 33.4961 90.3711C35.8398 87.8971 37.0117 85.0977 37.0117 81.9727C37.0117 78.6523 35.8398 75.8203 33.4961 73.4766ZM38.5742 67.2266L38.7695 64.3945C38.444 64.4596 37.9557 64.5898 37.3047 64.7852C36.6536 64.9805 36.1654 65.1107 35.8398 65.1758C37.0117 65.8268 37.9232 66.5104 38.5742 67.2266ZM185.16 111.172C180.928 101.276 178.812 90.8919 178.812 80.0195C178.812 69.1471 180.928 58.7956 185.16 48.9648C189.392 39.069 195.056 30.5729 202.152 23.4766C209.314 16.3151 217.81 10.6185 227.641 6.38672C237.536 2.15495 247.921 0.0390625 258.793 0.0390625C269.665 0.0390625 280.017 2.15495 289.848 6.38672C299.743 10.6185 308.24 16.3151 315.336 23.4766C322.497 30.5729 328.194 39.069 332.426 48.9648C336.658 58.7956 338.773 69.1471 338.773 80.0195C338.773 90.8919 336.658 101.276 332.426 111.172C328.194 121.003 322.497 129.499 315.336 136.66C308.24 143.757 299.743 149.421 289.848 153.652C280.017 157.884 269.665 160 258.793 160C247.921 160 237.536 157.884 227.641 153.652C217.81 149.421 209.314 143.757 202.152 136.66C195.056 129.499 189.392 121.003 185.16 111.172ZM230.473 51.7969C222.66 59.6094 218.754 69.0169 218.754 80.0195C218.754 91.0221 222.66 100.43 230.473 108.242C238.35 116.055 247.79 119.961 258.793 119.961C269.796 119.961 279.203 116.055 287.016 108.242C294.893 100.43 298.832 91.0221 298.832 80.0195C298.832 69.0169 294.893 59.6094 287.016 51.7969C279.203 43.9193 269.796 39.9805 258.793 39.9805C247.79 39.9805 238.35 43.9193 230.473 51.7969ZM210.746 80.0195C210.746 73.5742 212.016 67.3893 214.555 61.4648C217.094 55.4753 220.512 50.332 224.809 46.0352C229.105 41.7383 234.216 38.3203 240.141 35.7812C246.13 33.2422 252.348 31.9727 258.793 31.9727C267.452 31.9727 275.46 34.1211 282.816 38.418C290.173 42.7148 296 48.5742 300.297 55.9961C304.594 63.3529 306.742 71.3607 306.742 80.0195C306.742 88.6784 304.594 96.6862 300.297 104.043C296 111.4 290.173 117.227 282.816 121.523C275.46 125.82 267.452 127.969 258.793 127.969C250.134 127.969 242.094 125.82 234.672 121.523C227.315 117.227 221.488 111.4 217.191 104.043C212.895 96.6862 210.746 88.6784 210.746 80.0195ZM192.484 52.0898C188.708 60.944 186.82 70.2539 186.82 80.0195C186.82 89.7852 188.708 99.1276 192.484 108.047C196.26 116.901 201.371 124.551 207.816 130.996C214.262 137.441 221.911 142.552 230.766 146.328C239.685 150.104 249.027 151.992 258.793 151.992C268.559 151.992 277.868 150.104 286.723 146.328C295.642 142.552 303.324 137.441 309.77 130.996C316.215 124.551 321.326 116.901 325.102 108.047C328.878 99.1276 330.766 89.7852 330.766 80.0195C330.766 70.2539 328.878 60.944 325.102 52.0898C321.326 43.1706 316.215 35.4883 309.77 29.043C303.324 22.5977 295.642 17.487 286.723 13.7109C277.868 9.9349 268.559 8.04688 258.793 8.04688C249.027 8.04688 239.685 9.9349 230.766 13.7109C221.911 17.487 214.262 22.5977 207.816 29.043C201.371 35.4883 196.26 43.1706 192.484 52.0898ZM389.168 111.172C384.936 101.276 382.82 90.8919 382.82 80.0195C382.82 69.1471 384.936 58.7956 389.168 48.9648C393.4 39.069 399.064 30.5729 406.16 23.4766C413.322 16.3151 421.818 10.6185 431.648 6.38672C441.544 2.15495 451.928 0.0390625 462.801 0.0390625C473.673 0.0390625 484.025 2.15495 493.855 6.38672C503.751 10.6185 512.247 16.3151 519.344 23.4766C526.505 30.5729 532.202 39.069 536.434 48.9648C540.665 58.7956 542.781 69.1471 542.781 80.0195C542.781 90.8919 540.665 101.276 536.434 111.172C532.202 121.003 526.505 129.499 519.344 136.66C512.247 143.757 503.751 149.421 493.855 153.652C484.025 157.884 473.673 160 462.801 160C451.928 160 441.544 157.884 431.648 153.652C421.818 149.421 413.322 143.757 406.16 136.66C399.064 129.499 393.4 121.003 389.168 111.172ZM434.48 51.7969C426.668 59.6094 422.762 69.0169 422.762 80.0195C422.762 91.0221 426.668 100.43 434.48 108.242C442.358 116.055 451.798 119.961 462.801 119.961C473.803 119.961 483.211 116.055 491.023 108.242C498.901 100.43 502.84 91.0221 502.84 80.0195C502.84 69.0169 498.901 59.6094 491.023 51.7969C483.211 43.9193 473.803 39.9805 462.801 39.9805C451.798 39.9805 442.358 43.9193 434.48 51.7969ZM414.754 80.0195C414.754 73.5742 416.023 67.3893 418.562 61.4648C421.102 55.4753 424.52 50.332 428.816 46.0352C433.113 41.7383 438.224 38.3203 444.148 35.7812C450.138 33.2422 456.355 31.9727 462.801 31.9727C471.46 31.9727 479.467 34.1211 486.824 38.418C494.181 42.7148 500.008 48.5742 504.305 55.9961C508.602 63.3529 510.75 71.3607 510.75 80.0195C510.75 88.6784 508.602 96.6862 504.305 104.043C500.008 111.4 494.181 117.227 486.824 121.523C479.467 125.82 471.46 127.969 462.801 127.969C454.142 127.969 446.102 125.82 438.68 121.523C431.323 117.227 425.496 111.4 421.199 104.043C416.902 96.6862 414.754 88.6784 414.754 80.0195ZM396.492 52.0898C392.716 60.944 390.828 70.2539 390.828 80.0195C390.828 89.7852 392.716 99.1276 396.492 108.047C400.268 116.901 405.379 124.551 411.824 130.996C418.27 137.441 425.919 142.552 434.773 146.328C443.693 150.104 453.035 151.992 462.801 151.992C472.566 151.992 481.876 150.104 490.73 146.328C499.65 142.552 507.332 137.441 513.777 130.996C520.223 124.551 525.333 116.901 529.109 108.047C532.885 99.1276 534.773 89.7852 534.773 80.0195C534.773 70.2539 532.885 60.944 529.109 52.0898C525.333 43.1706 520.223 35.4883 513.777 29.043C507.332 22.5977 499.65 17.487 490.73 13.7109C481.876 9.9349 472.566 8.04688 462.801 8.04688C453.035 8.04688 443.693 9.9349 434.773 13.7109C425.919 17.487 418.27 22.5977 411.824 29.043C405.379 35.4883 400.268 43.1706 396.492 52.0898Z" fill="#667085"/>
</svg>
