<svg width="541" height="160" viewBox="0 0 541 160" fill="none" xmlns="http://www.w3.org/2000/svg">
<path d="M6.83203 95.8398L96.7734 5.80078C100.615 1.95964 105.367 0.0390625 111.031 0.0390625C116.565 0.0390625 121.253 1.99219 125.094 5.89844C129 9.73958 130.953 14.4271 130.953 19.9609V89.9805H141.012C146.546 89.9805 151.266 91.9336 155.172 95.8398C159.078 99.7461 161.031 104.466 161.031 110C161.031 115.534 159.078 120.254 155.172 124.16C151.266 128.066 146.546 130.02 141.012 130.02H130.953V139.98C130.953 145.514 129 150.234 125.094 154.141C121.253 158.047 116.565 160 111.031 160C105.497 160 100.777 158.047 96.8711 154.141C92.9648 150.234 91.0117 145.514 91.0117 139.98V130.02H20.9922C15.4583 130.02 10.7383 128.066 6.83203 124.16C2.92578 120.254 0.972656 115.534 0.972656 110C0.972656 104.661 2.92578 99.9414 6.83203 95.8398ZM24.2148 89.9805H58.1992L91.0117 57.168V23.1836L24.2148 89.9805ZM61.4219 97.9883L37.3984 122.012H91.0117V97.9883H61.4219ZM99.0195 60.3906V89.9805H123.043V36.3672L99.0195 60.3906ZM111.031 119.961C113.831 119.961 116.76 120.645 119.82 122.012H123.043V118.789C121.676 115.729 120.992 112.799 120.992 110C120.992 107.331 121.676 104.466 123.043 101.406V97.9883H99.0195V122.012H102.438C105.497 120.645 108.362 119.961 111.031 119.961ZM102.535 11.5625C100.191 13.8411 99.0195 16.6406 99.0195 19.9609C99.0195 23.2812 100.191 26.1133 102.535 28.457C104.879 30.8008 107.711 31.9727 111.031 31.9727C114.352 31.9727 117.184 30.8008 119.527 28.457C121.871 26.1133 123.043 23.2812 123.043 19.9609C123.043 16.6406 121.871 13.8411 119.527 11.5625C117.184 9.21875 114.352 8.04688 111.031 8.04688C107.711 8.04688 104.879 9.21875 102.535 11.5625ZM12.4961 118.496C14.8398 120.84 17.6719 122.012 20.9922 122.012C24.3125 122.012 27.1445 120.84 29.4883 118.496C31.832 116.152 33.0039 113.32 33.0039 110C33.0039 106.68 31.832 103.848 29.4883 101.504C27.1445 99.1602 24.3125 97.9883 20.9922 97.9883C17.6719 97.9883 14.8398 99.1602 12.4961 101.504C10.1523 103.848 8.98047 106.68 8.98047 110C8.98047 113.32 10.1523 116.152 12.4961 118.496ZM99.0195 139.98C99.0195 143.301 100.191 146.133 102.535 148.477C104.879 150.82 107.711 151.992 111.031 151.992C114.352 151.992 117.184 150.82 119.527 148.477C121.871 146.133 123.043 143.301 123.043 139.98C123.043 135.879 121.22 132.559 117.574 130.02H104.391C100.81 132.493 99.0195 135.814 99.0195 139.98ZM141.012 122.012C144.332 122.012 147.164 120.84 149.508 118.496C151.852 116.152 153.023 113.32 153.023 110C153.023 106.68 151.852 103.848 149.508 101.504C147.164 99.1602 144.332 97.9883 141.012 97.9883C136.78 97.9883 133.427 99.7786 130.953 103.359V116.641C133.427 120.221 136.78 122.012 141.012 122.012ZM69.4297 89.9805H91.0117V68.3984L69.4297 89.9805ZM37.0078 97.9883C39.1562 101.048 40.4909 104.173 41.0117 107.363L50.1914 97.9883H37.0078ZM108.395 39.9805C105.204 39.4596 102.079 38.125 99.0195 35.9766V49.1602L108.395 39.9805ZM209.277 111.172C205.046 101.276 202.93 90.8919 202.93 80.0195C202.93 69.1471 205.046 58.7956 209.277 48.9648C213.509 39.069 219.173 30.5729 226.27 23.4766C233.431 16.3151 241.927 10.6185 251.758 6.38672C261.654 2.15495 272.038 0.0390625 282.91 0.0390625C293.783 0.0390625 304.134 2.15495 313.965 6.38672C323.861 10.6185 332.357 16.3151 339.453 23.4766C346.615 30.5729 352.311 39.069 356.543 48.9648C360.775 58.7956 362.891 69.1471 362.891 80.0195C362.891 90.8919 360.775 101.276 356.543 111.172C352.311 121.003 346.615 129.499 339.453 136.66C332.357 143.757 323.861 149.421 313.965 153.652C304.134 157.884 293.783 160 282.91 160C272.038 160 261.654 157.884 251.758 153.652C241.927 149.421 233.431 143.757 226.27 136.66C219.173 129.499 213.509 121.003 209.277 111.172ZM254.59 51.7969C246.777 59.6094 242.871 69.0169 242.871 80.0195C242.871 91.0221 246.777 100.43 254.59 108.242C262.467 116.055 271.908 119.961 282.91 119.961C293.913 119.961 303.32 116.055 311.133 108.242C319.01 100.43 322.949 91.0221 322.949 80.0195C322.949 69.0169 319.01 59.6094 311.133 51.7969C303.32 43.9193 293.913 39.9805 282.91 39.9805C271.908 39.9805 262.467 43.9193 254.59 51.7969ZM234.863 80.0195C234.863 73.5742 236.133 67.3893 238.672 61.4648C241.211 55.4753 244.629 50.332 248.926 46.0352C253.223 41.7383 258.333 38.3203 264.258 35.7812C270.247 33.2422 276.465 31.9727 282.91 31.9727C291.569 31.9727 299.577 34.1211 306.934 38.418C314.29 42.7148 320.117 48.5742 324.414 55.9961C328.711 63.3529 330.859 71.3607 330.859 80.0195C330.859 88.6784 328.711 96.6862 324.414 104.043C320.117 111.4 314.29 117.227 306.934 121.523C299.577 125.82 291.569 127.969 282.91 127.969C274.251 127.969 266.211 125.82 258.789 121.523C251.432 117.227 245.605 111.4 241.309 104.043C237.012 96.6862 234.863 88.6784 234.863 80.0195ZM216.602 52.0898C212.826 60.944 210.938 70.2539 210.938 80.0195C210.938 89.7852 212.826 99.1276 216.602 108.047C220.378 116.901 225.488 124.551 231.934 130.996C238.379 137.441 246.029 142.552 254.883 146.328C263.802 150.104 273.145 151.992 282.91 151.992C292.676 151.992 301.986 150.104 310.84 146.328C319.759 142.552 327.441 137.441 333.887 130.996C340.332 124.551 345.443 116.901 349.219 108.047C352.995 99.1276 354.883 89.7852 354.883 80.0195C354.883 70.2539 352.995 60.944 349.219 52.0898C345.443 43.1706 340.332 35.4883 333.887 29.043C327.441 22.5977 319.759 17.487 310.84 13.7109C301.986 9.9349 292.676 8.04688 282.91 8.04688C273.145 8.04688 263.802 9.9349 254.883 13.7109C246.029 17.487 238.379 22.5977 231.934 29.043C225.488 35.4883 220.378 43.1706 216.602 52.0898ZM447.562 94.1797C443.656 90.2734 441.703 85.5534 441.703 80.0195C441.703 74.4857 443.656 69.7656 447.562 65.8594C451.469 61.9531 456.189 60 461.723 60H471.684C491.02 60 500.688 56.6797 500.688 50.0391C500.688 43.3333 491.02 39.9805 471.684 39.9805C464.392 39.9805 458.012 40.5664 452.543 41.7383C447.139 42.9102 441.54 44.668 435.746 47.0117C433.793 47.793 431.514 48.1836 428.91 48.1836C423.376 48.1836 418.656 46.2305 414.75 42.3242C410.844 38.418 408.891 33.6979 408.891 28.1641C408.891 23.9974 410.095 20.2539 412.504 16.9336C414.978 13.6133 418.168 11.1068 422.074 9.41406C428.65 6.54948 436.527 4.27083 445.707 2.57812C454.887 0.885417 463.546 0.0390625 471.684 0.0390625C485.095 0.0390625 496.977 1.99219 507.328 5.89844C517.68 9.73958 525.818 15.4688 531.742 23.0859C537.732 30.7031 540.727 39.6875 540.727 50.0391C540.727 61.888 536.853 71.8815 529.105 80.0195C536.853 88.3529 540.727 98.3464 540.727 110C540.727 120.352 537.732 129.336 531.742 136.953C525.818 144.57 517.68 150.332 507.328 154.238C496.977 158.079 485.095 160 471.684 160C463.546 160 454.887 159.154 445.707 157.461C436.527 155.768 428.65 153.49 422.074 150.625C418.168 148.997 414.978 146.491 412.504 143.105C410.095 139.72 408.891 135.944 408.891 131.777C408.891 126.243 410.844 121.523 414.75 117.617C418.656 113.711 423.376 111.758 428.91 111.758C431.319 111.758 433.598 112.181 435.746 113.027C441.475 115.371 447.074 117.129 452.543 118.301C458.012 119.408 464.392 119.961 471.684 119.961C491.02 119.961 500.688 116.641 500.688 110C500.688 103.359 491.02 100.039 471.684 100.039H461.723C456.189 100.039 451.469 98.0859 447.562 94.1797ZM448.93 131.777C448.93 138.809 446.13 144.277 440.531 148.184C450.297 150.723 460.681 151.992 471.684 151.992C483.533 151.992 494.014 150.365 503.129 147.109C512.309 143.854 519.535 139.036 524.809 132.656C530.082 126.211 532.719 118.659 532.719 110C532.719 100.169 529.724 91.901 523.734 85.1953C516.768 90.4036 508.695 94.2122 499.516 96.6211C505.635 99.6159 508.695 104.076 508.695 110C508.695 121.979 496.358 127.969 471.684 127.969C463.285 127.969 455.375 127.122 447.953 125.43C448.604 127.578 448.93 129.694 448.93 131.777ZM448.93 28.1641C448.93 30.8333 448.604 32.9818 447.953 34.6094C455.635 32.8516 463.546 31.9727 471.684 31.9727C478.91 31.9727 485.16 32.526 490.434 33.6328C495.707 34.6745 500.069 36.5951 503.52 39.3945C506.97 42.1289 508.695 45.6771 508.695 50.0391C508.695 55.9635 505.635 60.4232 499.516 63.418C509.216 66.1523 517.289 70.026 523.734 75.0391C529.724 68.3333 532.719 60 532.719 50.0391C532.719 41.3802 530.082 33.8607 524.809 27.4805C519.535 21.0352 512.309 16.1849 503.129 12.9297C494.014 9.67448 483.533 8.04688 471.684 8.04688C461.137 8.04688 450.753 9.34896 440.531 11.9531C443.135 13.776 445.186 16.1198 446.684 18.9844C448.181 21.7839 448.93 24.8438 448.93 28.1641ZM518.07 80.0195C508.565 72.9883 495.186 69.0495 477.934 68.2031C480.473 71.5234 481.742 75.4622 481.742 80.0195C481.742 84.4466 480.473 88.4505 477.934 92.0312C494.991 91.25 508.37 87.2461 518.07 80.0195ZM437.406 140.273C439.75 137.93 440.922 135.098 440.922 131.777C440.922 128.457 439.75 125.625 437.406 123.281C435.062 120.938 432.23 119.766 428.91 119.766C425.59 119.766 422.758 120.938 420.414 123.281C418.07 125.625 416.898 128.457 416.898 131.777C416.898 135.098 418.07 137.93 420.414 140.273C422.758 142.617 425.59 143.789 428.91 143.789C432.23 143.789 435.062 142.617 437.406 140.273ZM453.227 71.5234C450.883 73.8672 449.711 76.6992 449.711 80.0195C449.711 83.3398 450.883 86.1719 453.227 88.5156C455.57 90.8594 458.402 92.0312 461.723 92.0312C465.043 92.0312 467.875 90.8594 470.219 88.5156C472.562 86.1719 473.734 83.3398 473.734 80.0195C473.734 76.6992 472.562 73.8672 470.219 71.5234C467.875 69.1797 465.043 68.0078 461.723 68.0078C458.402 68.0078 455.57 69.1797 453.227 71.5234ZM437.406 36.6602C439.75 34.3164 440.922 31.4844 440.922 28.1641C440.922 24.8438 439.75 22.0117 437.406 19.668C435.062 17.3242 432.23 16.1523 428.91 16.1523C425.59 16.1523 422.758 17.3242 420.414 19.668C418.07 22.0117 416.898 24.8438 416.898 28.1641C416.898 31.4844 418.07 34.3164 420.414 36.6602C422.758 39.0039 425.59 40.1758 428.91 40.1758C432.23 40.1758 435.062 39.0039 437.406 36.6602Z" fill="#667085"/>
</svg>
