<svg width="547" height="160" viewBox="0 0 547 160" fill="none" xmlns="http://www.w3.org/2000/svg">
<path d="M6.83203 95.8398L96.7734 5.80078C100.615 1.95964 105.367 0.0390625 111.031 0.0390625C116.565 0.0390625 121.253 1.99219 125.094 5.89844C129 9.73958 130.953 14.4271 130.953 19.9609V89.9805H141.012C146.546 89.9805 151.266 91.9336 155.172 95.8398C159.078 99.7461 161.031 104.466 161.031 110C161.031 115.534 159.078 120.254 155.172 124.16C151.266 128.066 146.546 130.02 141.012 130.02H130.953V139.98C130.953 145.514 129 150.234 125.094 154.141C121.253 158.047 116.565 160 111.031 160C105.497 160 100.777 158.047 96.8711 154.141C92.9648 150.234 91.0117 145.514 91.0117 139.98V130.02H20.9922C15.4583 130.02 10.7383 128.066 6.83203 124.16C2.92578 120.254 0.972656 115.534 0.972656 110C0.972656 104.661 2.92578 99.9414 6.83203 95.8398ZM24.2148 89.9805H58.1992L91.0117 57.168V23.1836L24.2148 89.9805ZM61.4219 97.9883L37.3984 122.012H91.0117V97.9883H61.4219ZM99.0195 60.3906V89.9805H123.043V36.3672L99.0195 60.3906ZM111.031 119.961C113.831 119.961 116.76 120.645 119.82 122.012H123.043V118.789C121.676 115.729 120.992 112.799 120.992 110C120.992 107.331 121.676 104.466 123.043 101.406V97.9883H99.0195V122.012H102.438C105.497 120.645 108.362 119.961 111.031 119.961ZM102.535 11.5625C100.191 13.8411 99.0195 16.6406 99.0195 19.9609C99.0195 23.2812 100.191 26.1133 102.535 28.457C104.879 30.8008 107.711 31.9727 111.031 31.9727C114.352 31.9727 117.184 30.8008 119.527 28.457C121.871 26.1133 123.043 23.2812 123.043 19.9609C123.043 16.6406 121.871 13.8411 119.527 11.5625C117.184 9.21875 114.352 8.04688 111.031 8.04688C107.711 8.04688 104.879 9.21875 102.535 11.5625ZM12.4961 118.496C14.8398 120.84 17.6719 122.012 20.9922 122.012C24.3125 122.012 27.1445 120.84 29.4883 118.496C31.832 116.152 33.0039 113.32 33.0039 110C33.0039 106.68 31.832 103.848 29.4883 101.504C27.1445 99.1602 24.3125 97.9883 20.9922 97.9883C17.6719 97.9883 14.8398 99.1602 12.4961 101.504C10.1523 103.848 8.98047 106.68 8.98047 110C8.98047 113.32 10.1523 116.152 12.4961 118.496ZM99.0195 139.98C99.0195 143.301 100.191 146.133 102.535 148.477C104.879 150.82 107.711 151.992 111.031 151.992C114.352 151.992 117.184 150.82 119.527 148.477C121.871 146.133 123.043 143.301 123.043 139.98C123.043 135.879 121.22 132.559 117.574 130.02H104.391C100.81 132.493 99.0195 135.814 99.0195 139.98ZM141.012 122.012C144.332 122.012 147.164 120.84 149.508 118.496C151.852 116.152 153.023 113.32 153.023 110C153.023 106.68 151.852 103.848 149.508 101.504C147.164 99.1602 144.332 97.9883 141.012 97.9883C136.78 97.9883 133.427 99.7786 130.953 103.359V116.641C133.427 120.221 136.78 122.012 141.012 122.012ZM69.4297 89.9805H91.0117V68.3984L69.4297 89.9805ZM37.0078 97.9883C39.1562 101.048 40.4909 104.173 41.0117 107.363L50.1914 97.9883H37.0078ZM108.395 39.9805C105.204 39.4596 102.079 38.125 99.0195 35.9766V49.1602L108.395 39.9805ZM209.277 34.4141C209.277 30.5729 210.319 27.1224 212.402 24.0625C214.551 21.0026 217.383 18.4635 220.898 16.4453C228.776 11.4323 237.956 7.46094 248.438 4.53125C258.919 1.53646 268.685 0.0390625 277.734 0.0390625C291.211 0.0390625 303.092 2.02474 313.379 5.99609C323.665 9.90234 331.771 15.8268 337.695 23.7695C343.685 31.6471 346.68 41.0547 346.68 51.9922C346.484 65.7292 342.448 76.4062 334.57 84.0234C326.758 91.6406 313.867 97.8255 295.898 102.578C278.711 107.201 265.723 112.995 256.934 119.961H330.859C336.393 119.961 341.113 121.914 345.02 125.82C348.926 129.727 350.879 134.447 350.879 139.98C350.879 145.514 348.926 150.234 345.02 154.141C341.113 158.047 336.393 160 330.859 160H224.902C219.368 160 214.648 158.047 210.742 154.141C206.836 150.234 204.883 145.514 204.883 139.98V137.637C205.078 131.712 205.99 126.113 207.617 120.84C209.31 115.501 211.621 110.716 214.551 106.484C217.546 102.188 220.898 98.2487 224.609 94.668C228.385 91.0221 232.682 87.6693 237.5 84.6094C242.318 81.5495 247.135 78.8477 251.953 76.5039C256.771 74.1602 262.012 71.9141 267.676 69.7656C270.28 68.7891 273.6 67.7799 277.637 66.7383C281.673 65.6966 285.221 64.7852 288.281 64.0039C291.341 63.1576 294.368 62.2135 297.363 61.1719C300.358 60.0651 302.669 58.763 304.297 57.2656C305.924 55.7031 306.738 53.9453 306.738 51.9922C306.738 49.2578 305.404 46.9792 302.734 45.1562C300.065 43.2682 296.615 41.9336 292.383 41.1523C288.216 40.3711 283.333 39.9805 277.734 39.9805C272.135 39.9805 267.188 40.4688 262.891 41.4453C258.659 42.4219 255.273 43.5286 252.734 44.7656C250.195 46.0026 245.931 48.2812 239.941 51.6016C236.491 53.4896 232.943 54.4336 229.297 54.4336C223.763 54.4336 219.043 52.4805 215.137 48.5742C211.23 44.668 209.277 39.9479 209.277 34.4141ZM314.746 51.9922C314.746 54.1406 314.355 56.0938 313.574 57.8516C312.858 59.6094 311.686 61.1719 310.059 62.5391C308.496 63.9062 306.934 65.0781 305.371 66.0547C303.809 67.0312 301.66 68.0078 298.926 68.9844C296.257 69.8958 293.978 70.6445 292.09 71.2305C290.267 71.7513 287.793 72.4023 284.668 73.1836C277.572 75.0716 270.801 77.3177 264.355 79.9219C257.91 82.526 251.367 85.7812 244.727 89.6875C238.086 93.5938 232.227 98.3464 227.148 103.945C222.07 109.479 218.327 115.566 215.918 122.207C219.043 120.71 222.038 119.961 224.902 119.961H245.508C254.818 109.609 270.964 101.211 293.945 94.7656C309.896 90.4688 321.322 85.1302 328.223 78.75C335.124 72.3698 338.607 63.4505 338.672 51.9922C338.672 42.7474 336.035 34.7721 330.762 28.0664C325.488 21.3607 318.294 16.3477 309.18 13.0273C300.13 9.70703 289.648 8.04688 277.734 8.04688C265.169 8.04688 251.953 10.8464 238.086 16.4453C241.471 18.2031 244.173 20.6771 246.191 23.8672C248.275 27.0573 249.316 30.5729 249.316 34.4141C249.316 35.9115 249.251 37.0508 249.121 37.832C257.52 33.9258 267.057 31.9727 277.734 31.9727C288.737 31.9727 297.656 33.6328 304.492 36.9531C311.328 40.2083 314.746 45.2214 314.746 51.9922ZM310.938 139.98C310.938 135.684 312.272 131.68 314.941 127.969H249.121C246.517 131.745 245.117 135.488 244.922 139.199V139.98C244.922 144.733 243.587 148.737 240.918 151.992H314.941C312.272 148.477 310.938 144.473 310.938 139.98ZM216.406 131.484C214.062 133.828 212.891 136.66 212.891 139.98C212.891 143.301 214.062 146.133 216.406 148.477C218.75 150.82 221.582 151.992 224.902 151.992C228.223 151.992 231.055 150.82 233.398 148.477C235.742 146.133 236.914 143.301 236.914 139.98C236.914 136.66 235.742 133.828 233.398 131.484C231.055 129.141 228.223 127.969 224.902 127.969C221.582 127.969 218.75 129.141 216.406 131.484ZM322.363 148.477C324.707 150.82 327.539 151.992 330.859 151.992C334.18 151.992 337.012 150.82 339.355 148.477C341.699 146.133 342.871 143.301 342.871 139.98C342.871 136.66 341.699 133.828 339.355 131.484C337.012 129.141 334.18 127.969 330.859 127.969C327.539 127.969 324.707 129.141 322.363 131.484C320.085 133.828 318.945 136.66 318.945 139.98C318.945 143.301 320.085 146.133 322.363 148.477ZM220.801 25.918C218.457 28.2617 217.285 31.0938 217.285 34.4141C217.285 37.7344 218.457 40.5664 220.801 42.9102C223.145 45.2539 225.977 46.4258 229.297 46.4258C232.617 46.4258 235.449 45.2539 237.793 42.9102C240.137 40.5664 241.309 37.7344 241.309 34.4141C241.309 31.0938 240.137 28.2617 237.793 25.918C235.449 23.5742 232.617 22.4023 229.297 22.4023C225.977 22.4023 223.145 23.5742 220.801 25.918ZM496.781 106.973C488.643 108.796 480.44 109.805 472.172 110H469.926C459.77 110 450.329 108.893 441.605 106.68C432.947 104.401 425.264 101.081 418.559 96.7188C411.853 92.2917 406.579 86.5299 402.738 79.4336C398.897 72.2721 396.977 64.1341 396.977 55.0195C396.977 46.3607 398.897 38.5156 402.738 31.4844C406.579 24.4531 411.82 18.6589 418.461 14.1016C425.167 9.54427 432.914 6.0612 441.703 3.65234C450.492 1.24349 459.9 0.0390625 469.926 0.0390625C482.686 0.0390625 494.014 1.92708 503.91 5.70312C513.806 9.41406 521.846 14.6875 528.031 21.5234C534.281 28.2943 539.001 36.2695 542.191 45.4492C545.382 54.6289 546.977 64.8177 546.977 76.0156C546.977 85.5859 545.707 94.668 543.168 103.262C540.694 111.855 537.081 119.603 532.328 126.504C527.576 133.34 521.911 139.297 515.336 144.375C508.76 149.388 501.241 153.262 492.777 155.996C484.379 158.665 475.427 160 465.922 160C450.036 160 434.835 156.875 420.316 150.625C416.41 149.193 413.22 146.784 410.746 143.398C408.337 139.948 407.133 136.074 407.133 131.777C407.133 126.243 409.086 121.523 412.992 117.617C416.898 113.711 421.618 111.758 427.152 111.758C429.301 111.758 431.579 112.181 433.988 113.027C438.611 114.915 441.866 116.217 443.754 116.934C445.707 117.585 448.637 118.268 452.543 118.984C456.514 119.635 460.974 119.961 465.922 119.961C478.292 119.961 488.578 115.632 496.781 106.973ZM469.926 8.04688C461.007 8.04688 452.641 9.08854 444.828 11.1719C437.016 13.2552 430.147 16.25 424.223 20.1562C418.298 23.9974 413.611 28.9128 410.16 34.9023C406.71 40.8919 404.984 47.5977 404.984 55.0195C404.984 62.832 406.677 69.7982 410.062 75.918C413.513 81.9727 418.233 86.888 424.223 90.6641C430.212 94.375 437.048 97.207 444.73 99.1602C452.478 101.048 460.876 101.992 469.926 101.992C484.444 101.992 497.172 99.5833 508.109 94.7656C519.047 89.8828 526.729 82.6888 531.156 73.1836C527.836 74.4206 525.102 75.0391 522.953 75.0391C519.633 75.0391 516.508 74.2904 513.578 72.793C510.714 71.2305 508.37 69.1146 506.547 66.4453C503.422 70.026 498.734 72.8581 492.484 74.9414C486.299 76.9596 478.78 77.9688 469.926 77.9688C456.71 77.9688 446.553 75.8203 439.457 71.5234C432.426 67.1615 428.91 61.6602 428.91 55.0195C428.91 48.3789 432.426 42.8776 439.457 38.5156C446.553 34.1536 456.71 31.9727 469.926 31.9727C478.78 31.9727 486.299 33.0143 492.484 35.0977C498.734 37.181 503.422 40.013 506.547 43.5938C508.37 40.9245 510.714 38.8411 513.578 37.3438C516.508 35.7812 519.633 35 522.953 35C525.102 35 527.25 35.3255 529.398 35.9766C518.266 17.3568 498.441 8.04688 469.926 8.04688ZM447.172 131.777C447.172 135.098 446.391 138.223 444.828 141.152C443.331 144.017 441.247 146.361 438.578 148.184C447.693 150.723 456.807 151.992 465.922 151.992C476.599 151.992 486.495 150.072 495.609 146.23C504.724 142.389 512.439 137.116 518.754 130.41C525.069 123.639 530.017 115.599 533.598 106.289C537.178 96.9141 538.969 86.8229 538.969 76.0156V75.625C533.891 87.7344 524.027 96.7839 509.379 102.773C505.408 110.456 499.581 116.576 491.898 121.133C484.281 125.69 475.622 127.969 465.922 127.969C459.346 127.969 452.771 127.253 446.195 125.82C446.846 127.773 447.172 129.759 447.172 131.777ZM494.34 65.7617C500.069 62.9622 502.934 59.3815 502.934 55.0195C502.934 50.6576 500.069 47.0768 494.34 44.2773C488.676 41.4128 480.538 39.9805 469.926 39.9805C459.314 39.9805 451.143 41.4128 445.414 44.2773C439.75 47.0768 436.918 50.6576 436.918 55.0195C436.918 59.3815 439.75 62.9622 445.414 65.7617C451.143 68.5612 459.314 69.9609 469.926 69.9609C480.538 69.9609 488.676 68.5612 494.34 65.7617ZM435.648 140.273C437.992 137.93 439.164 135.098 439.164 131.777C439.164 128.457 437.992 125.625 435.648 123.281C433.305 120.938 430.473 119.766 427.152 119.766C423.832 119.766 421 120.938 418.656 123.281C416.312 125.625 415.141 128.457 415.141 131.777C415.141 135.098 416.312 137.93 418.656 140.273C421 142.617 423.832 143.789 427.152 143.789C430.473 143.789 433.305 142.617 435.648 140.273ZM531.449 63.5156C533.793 61.1719 534.965 58.3398 534.965 55.0195C534.965 51.6992 533.793 48.8672 531.449 46.5234C529.105 44.1797 526.273 43.0078 522.953 43.0078C519.633 43.0078 516.801 44.1797 514.457 46.5234C512.113 48.8672 510.941 51.6992 510.941 55.0195C510.941 58.3398 512.113 61.1719 514.457 63.5156C516.801 65.8594 519.633 67.0312 522.953 67.0312C526.273 67.0312 529.105 65.8594 531.449 63.5156Z" fill="#667085"/>
</svg>
